<?xml version="1.0" encoding="UTF-8" standalone="no"?>
<svg width="211px" height="108px" viewBox="0 0 211 108" version="1.1" xmlns="http://www.w3.org/2000/svg" xmlns:xlink="http://www.w3.org/1999/xlink">
    <!-- Generator: Sketch 39.1 (31720) - http://www.bohemiancoding.com/sketch -->
    <title>Group 8</title>
    <desc>Created with Sketch.</desc>
    <defs>
        <linearGradient x1="50%" y1="0%" x2="50%" y2="100%" id="linearGradient-1">
            <stop stop-color="#C32AFF" offset="0%"></stop>
            <stop stop-color="#AE00FF" offset="28.5275829%"></stop>
            <stop stop-color="#DCA2FF" offset="53.0891263%"></stop>
            <stop stop-color="#681FA1" offset="71.9886001%"></stop>
            <stop stop-color="#9012FE" offset="100%"></stop>
        </linearGradient>
        <linearGradient x1="50%" y1="0%" x2="50%" y2="100%" id="linearGradient-2">
            <stop stop-color="#CF95F5" offset="0%"></stop>
            <stop stop-color="#FFFFFF" offset="53.2161594%"></stop>
            <stop stop-color="#B416FF" offset="100%"></stop>
        </linearGradient>
    </defs>
    <g id="Welcome" stroke="none" stroke-width="1" fill="none" fill-rule="evenodd">
        <g id="Desktop-HD-/-Desktop" transform="translate(-350.000000, -457.000000)">
            <g id="Group-7" transform="translate(354.000000, 461.000000)">
                <g id="Group-8">
                    <rect id="Rectangle" fill="#310073" x="53" y="83" width="154" height="21" rx="4"></rect>
                    <circle id="Oval-2" stroke="#300073" stroke-width="7" fill="url(#linearGradient-1)" cx="50" cy="50" r="50"></circle>
                    <path d="M96.4052734,97.140625 L93.1171875,97.140625 L92.5429688,99 L89.9794922,99 L93.6298828,89.046875 L95.8857422,89.046875 L99.5634766,99 L96.9863281,99 L96.4052734,97.140625 Z M93.6914062,95.2880859 L95.8310547,95.2880859 L94.7578125,91.8359375 L93.6914062,95.2880859 Z M103.439453,89.046875 L105.661133,95.9716797 L107.875977,89.046875 L111.03418,89.046875 L111.03418,99 L108.62793,99 L108.62793,96.6757812 L108.860352,91.9179688 L106.454102,99 L104.868164,99 L102.455078,91.9111328 L102.6875,96.6757812 L102.6875,99 L100.288086,99 L100.288086,89.046875 L103.439453,89.046875 Z M118.396484,89.046875 L120.795898,89.046875 L120.795898,99 L118.396484,99 L118.396484,92.7246094 L114.821289,99 L112.421875,99 L112.421875,89.046875 L114.821289,89.046875 L114.821289,95.3291016 L118.396484,89.046875 Z M130.578125,99 L128.192383,99 L128.192383,94.84375 L124.658203,94.84375 L124.658203,99 L122.258789,99 L122.258789,89.046875 L124.658203,89.046875 L124.658203,92.9980469 L128.192383,92.9980469 L128.192383,89.046875 L130.578125,89.046875 L130.578125,99 Z M140.524414,94.2285156 C140.524414,94.9895871 140.417319,95.6731741 140.203125,96.2792969 C139.988931,96.8854197 139.689292,97.4003885 139.304199,97.8242188 C138.919106,98.248049 138.461103,98.5727528 137.930176,98.7983398 C137.399249,99.0239269 136.81706,99.1367188 136.183594,99.1367188 C135.541012,99.1367188 134.951988,99.0239269 134.416504,98.7983398 C133.881019,98.5727528 133.420738,98.248049 133.035645,97.8242188 C132.650551,97.4003885 132.350913,96.8854197 132.136719,96.2792969 C131.922525,95.6731741 131.81543,94.9895871 131.81543,94.2285156 L131.81543,93.8251953 C131.81543,93.0641238 131.921386,92.3805369 132.133301,91.7744141 C132.345216,91.1682912 132.643716,90.6533224 133.028809,90.2294922 C133.413902,89.8056619 133.873044,89.4798188 134.40625,89.2519531 C134.939456,89.0240874 135.527341,88.9101562 136.169922,88.9101562 C136.803389,88.9101562 137.386716,89.0240874 137.919922,89.2519531 C138.453128,89.4798188 138.91227,89.8056619 139.297363,90.2294922 C139.682456,90.6533224 139.983235,91.1682912 140.199707,91.7744141 C140.416179,92.3805369 140.524414,93.0641238 140.524414,93.8251953 L140.524414,94.2285156 Z M138.083984,93.8115234 C138.083984,92.8225862 137.918784,92.0717799 137.588379,91.559082 C137.257974,91.0463842 136.785159,90.7900391 136.169922,90.7900391 C135.527341,90.7900391 135.04769,91.0463842 134.730957,91.559082 C134.414224,92.0717799 134.255859,92.8225862 134.255859,93.8115234 L134.255859,94.2285156 C134.255859,95.2037809 134.417642,95.9534479 134.741211,96.4775391 C135.06478,97.0016302 135.54557,97.2636719 136.183594,97.2636719 C136.794274,97.2636719 137.26367,97.0027695 137.591797,96.480957 C137.919924,95.9591445 138.083984,95.2083382 138.083984,94.2285156 L138.083984,93.8115234 Z M145.282227,95.0625 L144.147461,95.0625 L144.147461,99 L141.748047,99 L141.748047,89.046875 L144.147461,89.046875 L144.147461,92.8955078 L145.070312,92.8955078 L146.984375,89.046875 L149.889648,89.046875 L147.155273,93.640625 L150.231445,99 L147.394531,99 L145.282227,95.0625 Z M156.657227,89.046875 L159.056641,89.046875 L159.056641,99 L156.657227,99 L156.657227,92.7246094 L153.082031,99 L150.682617,99 L150.682617,89.046875 L153.082031,89.046875 L153.082031,95.3291016 L156.657227,89.046875 Z M168.572266,95.6298828 C168.549479,96.1494167 168.437827,96.6245096 168.237305,97.0551758 C168.036783,97.485842 167.758791,97.8549789 167.40332,98.1625977 C167.04785,98.4702164 166.621747,98.7094718 166.125,98.8803711 C165.628253,99.0512704 165.072269,99.1367188 164.457031,99.1367188 C163.791663,99.1367188 163.198082,99.0250662 162.67627,98.8017578 C162.154457,98.5784494 161.712404,98.2583029 161.350098,97.8413086 C160.987791,97.4243143 160.712078,96.9161814 160.522949,96.3168945 C160.333821,95.7176077 160.239258,95.0442746 160.239258,94.296875 L160.239258,93.7568359 C160.239258,93.0094364 160.338378,92.3361033 160.536621,91.7368164 C160.734864,91.1375296 161.017414,90.6282573 161.384277,90.2089844 C161.751141,89.7897114 162.192055,89.4672863 162.707031,89.2416992 C163.222008,89.0161122 163.796221,88.9033203 164.429688,88.9033203 C165.076826,88.9033203 165.6499,88.9933259 166.148926,89.1733398 C166.647952,89.3533538 167.070636,89.602863 167.416992,89.921875 C167.763348,90.240887 168.034504,90.6191384 168.230469,91.0566406 C168.426433,91.4941428 168.5472,91.970375 168.592773,92.4853516 L166.200195,92.4853516 C166.191081,92.2073554 166.153483,91.9612641 166.087402,91.7470703 C166.021321,91.5328765 165.917644,91.3551439 165.776367,91.2138672 C165.63509,91.0725904 165.455079,90.9654952 165.236328,90.8925781 C165.017577,90.8196611 164.7487,90.7832031 164.429688,90.7832031 C164.133462,90.7832031 163.875978,90.8378901 163.657227,90.9472656 C163.438475,91.0566412 163.256186,91.2298165 163.110352,91.4667969 C162.964518,91.7037772 162.856283,92.010252 162.785645,92.3862305 C162.715006,92.7622089 162.679688,93.2145156 162.679688,93.7431641 L162.679688,94.296875 C162.679688,94.8255235 162.711588,95.2766908 162.775391,95.6503906 C162.839193,96.0240904 162.940592,96.3305652 163.07959,96.5698242 C163.218588,96.8090832 163.400878,96.9833979 163.626465,97.0927734 C163.852052,97.202149 164.128905,97.2568359 164.457031,97.2568359 C165.008466,97.2568359 165.430012,97.1269544 165.72168,96.8671875 C166.013348,96.6074206 166.168294,96.1949898 166.186523,95.6298828 L168.572266,95.6298828 Z M178.081055,89.046875 L178.081055,99 L175.681641,99 L175.681641,90.8994141 L173.453125,90.8994141 L173.330078,93.4492188 C173.27539,94.4974011 173.166016,95.3758103 173.001953,96.0844727 C172.83789,96.7931351 172.610028,97.3639301 172.318359,97.796875 C172.026691,98.2298199 171.672365,98.5385733 171.255371,98.7231445 C170.838377,98.9077158 170.349612,99 169.789062,99 L169.201172,99 L169.201172,97.1542969 L169.467773,97.1542969 C169.681967,97.126953 169.863118,97.0825198 170.01123,97.0209961 C170.159343,96.9594723 170.283528,96.8694667 170.383789,96.7509766 C170.48405,96.6324864 170.564941,96.4832366 170.626465,96.3032227 C170.687989,96.1232087 170.736979,95.8999037 170.773438,95.6333008 C170.809896,95.3666979 170.838379,95.0545265 170.858887,94.6967773 C170.879395,94.3390282 170.901042,93.9231795 170.923828,93.4492188 L171.142578,89.046875 L178.081055,89.046875 Z M188.006836,94.2285156 C188.006836,94.9895871 187.899741,95.6731741 187.685547,96.2792969 C187.471353,96.8854197 187.171714,97.4003885 186.786621,97.8242188 C186.401528,98.248049 185.943525,98.5727528 185.412598,98.7983398 C184.881671,99.0239269 184.299482,99.1367188 183.666016,99.1367188 C183.023434,99.1367188 182.43441,99.0239269 181.898926,98.7983398 C181.363441,98.5727528 180.903159,98.248049 180.518066,97.8242188 C180.132973,97.4003885 179.833334,96.8854197 179.619141,96.2792969 C179.404947,95.6731741 179.297852,94.9895871 179.297852,94.2285156 L179.297852,93.8251953 C179.297852,93.0641238 179.403808,92.3805369 179.615723,91.7744141 C179.827638,91.1682912 180.126137,90.6533224 180.51123,90.2294922 C180.896324,89.8056619 181.355466,89.4798188 181.888672,89.2519531 C182.421878,89.0240874 183.009762,88.9101562 183.652344,88.9101562 C184.28581,88.9101562 184.869138,89.0240874 185.402344,89.2519531 C185.93555,89.4798188 186.394692,89.8056619 186.779785,90.2294922 C187.164878,90.6533224 187.465656,91.1682912 187.682129,91.7744141 C187.898601,92.3805369 188.006836,93.0641238 188.006836,93.8251953 L188.006836,94.2285156 Z M185.566406,93.8115234 C185.566406,92.8225862 185.401206,92.0717799 185.070801,91.559082 C184.740395,91.0463842 184.267581,90.7900391 183.652344,90.7900391 C183.009762,90.7900391 182.530112,91.0463842 182.213379,91.559082 C181.896646,92.0717799 181.738281,92.8225862 181.738281,93.8115234 L181.738281,94.2285156 C181.738281,95.2037809 181.900063,95.9534479 182.223633,96.4775391 C182.547202,97.0016302 183.027992,97.2636719 183.666016,97.2636719 C184.276696,97.2636719 184.746092,97.0027695 185.074219,96.480957 C185.402345,95.9591445 185.566406,95.2083382 185.566406,94.2285156 L185.566406,93.8115234 Z M197.057617,90.8994141 L194.070312,90.8994141 L194.070312,99 L191.670898,99 L191.670898,90.8994141 L188.738281,90.8994141 L188.738281,89.046875 L197.057617,89.046875 L197.057617,90.8994141 Z" id="аминокислот" fill="#FFFFFF"></path>
                    <text id="20" fill="url(#linearGradient-2)" font-family="Roboto-Black, Roboto" font-size="64" font-weight="700">
                        <tspan x="13" y="72">20</tspan>
                    </text>
                </g>
            </g>
        </g>
    </g>
</svg>