<?xml version="1.0" encoding="UTF-8" standalone="no"?>
<svg width="136px" height="137px" viewBox="0 0 136 137" version="1.1" xmlns="http://www.w3.org/2000/svg" xmlns:xlink="http://www.w3.org/1999/xlink">
    <!-- Generator: Sketch 39.1 (31720) - http://www.bohemiancoding.com/sketch -->
    <title>Group 12</title>
    <desc>Created with Sketch.</desc>
    <defs>
        <linearGradient x1="0%" y1="0%" x2="101.999998%" y2="100.999999%" id="linearGradient-1">
            <stop stop-color="#3023AE" offset="0%"></stop>
            <stop stop-color="#C96DD8" offset="100%"></stop>
        </linearGradient>
    </defs>
    <g id="Welcome" stroke="none" stroke-width="1" fill="none" fill-rule="evenodd">
        <g id="Desktop-HD-/-Desktop" transform="translate(-328.000000, -1101.000000)">
            <g id="Group-12" transform="translate(330.000000, 1103.000000)">
                <ellipse id="Oval-Copy-2" stroke="#7ED321" stroke-width="4" cx="65.8027344" cy="66.1166992" rx="65.8027344" ry="66.1166992"></ellipse>
                <path d="M97.7165192,74.746205 C93.117824,74.746205 89.3779966,70.9885338 89.3779966,66.3678968 C89.3779966,61.7472598 93.117824,57.9895886 97.7165192,57.9895886 C102.315214,57.9895886 106.055042,61.7472598 106.055042,66.3678968 C106.055042,70.9885338 102.315214,74.746205 97.7165192,74.746205 L97.7165192,74.746205 Z M60.7726949,81.7672273 C58.5504786,78.906035 56.0072292,76.7988905 51.8379679,75.86052 L51.8379679,57.9225621 C56.0072292,56.9171651 59.0174359,54.6005629 61.2563292,51.4293732 L81.3646764,63.0919783 C80.9310732,65.2745276 80.9102269,67.4989684 81.4021998,69.8407055 L60.7726949,81.7672273 Z M47.6853837,100.404774 C43.0866885,100.404774 39.3468611,96.6471026 39.3468611,92.0264657 C39.3468611,87.4058287 43.0866885,83.6481575 47.6853837,83.6481575 C52.2840789,83.6481575 56.0239063,87.4058287 56.0239063,92.0264657 C56.0239063,96.6471026 52.2840789,100.404774 47.6853837,100.404774 L47.6853837,100.404774 Z M39.3301841,41.7566164 C39.3301841,37.1359794 43.4994454,33.3783082 47.6687066,33.3783082 C60.1764905,33.3783082 60.1764905,50.1349246 47.6687066,50.1349246 C43.4994454,50.1349246 39.3301841,46.3772534 39.3301841,41.7566164 L39.3301841,41.7566164 Z M97.7165192,49.6112804 C92.6258512,49.6112804 88.1272182,51.9530175 85.0669804,55.5640683 L64.1914891,43.4532238 C65.2463122,33.0389867 57.1454376,25 47.6853837,25 C38.4754855,25 31,32.502775 31,41.7566164 C31,49.5568214 35.1609228,56.0500102 43.4994454,57.9225621 L43.4994454,75.86052 C35.1609228,77.7288827 31,84.2262607 31,92.0264657 C31,101.280307 38.4713162,108.783082 47.6812144,108.783082 C57.5290096,108.783082 65.7132695,100.103155 64.1081039,89.5087841 L85.187889,77.3225348 C88.2439575,80.8498025 92.6967286,83.1245132 97.7165192,83.1245132 C106.926417,83.1245132 114.393564,75.6217382 114.393564,66.3678968 C114.393564,57.1140554 106.926417,49.6112804 97.7165192,49.6112804 L97.7165192,49.6112804 Z" id="share-[#1099]-copy" fill="url(#linearGradient-1)"></path>
            </g>
        </g>
    </g>
</svg>