<?xml version="1.0" encoding="UTF-8" standalone="no"?>
<svg width="136px" height="137px" viewBox="0 0 136 137" version="1.1" xmlns="http://www.w3.org/2000/svg" xmlns:xlink="http://www.w3.org/1999/xlink">
    <!-- Generator: Sketch 39.1 (31720) - http://www.bohemiancoding.com/sketch -->
    <title>Group 17</title>
    <desc>Created with Sketch.</desc>
    <defs>
        <linearGradient x1="50%" y1="0%" x2="50%" y2="100%" id="linearGradient-1">
            <stop stop-color="#FFAC43" offset="0%"></stop>
            <stop stop-color="#FF5555" offset="100%"></stop>
        </linearGradient>
    </defs>
    <g id="Welcome" stroke="none" stroke-width="1" fill="none" fill-rule="evenodd">
        <g id="Desktop-HD-/-Desktop" transform="translate(-728.000000, -1484.000000)">
            <g id="Group-17" transform="translate(730.000000, 1486.000000)">
                <ellipse id="Oval-Copy-7" stroke="#7ED321" stroke-width="4" cx="65.8027344" cy="66.1166992" rx="65.8027344" ry="66.1166992"></ellipse>
                <g id="brain" transform="translate(29.000000, 28.000000)" fill="url(#linearGradient-1)">
                    <g id="Capa_1">
                        <g id="Group">
                            <path d="M29.8668103,0 C29.274569,0 28.7443966,0.12705 28.2788793,0.383716667 C26.2655172,0.778983333 24.975,2.04691667 24.0219828,2.98246667 C23.3883621,3.60488333 22.8413793,4.1426 22.3681034,4.1426 L22.3668103,4.1426 C21.7590517,4.1041 21.2017241,4.081 20.6883621,4.081 C17.1814655,4.081 15.3491379,5.29375 13.6887931,8.7164 C13.6344828,8.82676667 13.575,8.89735 13.5193966,8.98333333 L14.5228448,8.98333333 C18.8017241,8.98333333 22.2814655,12.4367833 22.2814655,16.6833333 C22.2814655,17.3930167 21.7021552,17.9666667 20.9883621,17.9666667 C20.274569,17.9666667 19.6952586,17.3930167 19.6952586,16.6833333 C19.6952586,13.8523 17.375431,11.55 14.5228448,11.55 L8.41810345,11.55 C5.27715517,13.8574333 3.34137931,18.00645 3.59612069,22.1849833 C3.72025862,24.2229167 3.16163793,27.5685667 2.16077586,29.1124167 C-0.305172414,32.92135 -0.305172414,38.24205 2.16077586,42.0509833 C2.54224138,42.63875 3.10086207,43.3227667 3.74741379,44.1158667 C4.90086207,45.5301 6.83275862,47.8952833 6.76681034,48.9784167 C6.47327586,53.77295 9.42155172,59.2977 13.3383621,61.2932833 C14.0431034,61.6526167 14.162069,62.0158 14.4284483,63.1156167 C14.4581897,63.2349667 14.4905172,63.3645833 14.5228448,63.4954833 L14.5228448,61.8900333 C14.5228448,56.93765 18.5831897,52.9067 23.574569,52.9067 C24.2883621,52.9067 24.8676724,53.48035 24.8676724,54.1900333 C24.8676724,54.8997167 24.2883621,55.4733667 23.574569,55.4733667 C20.0094828,55.4733667 17.1090517,58.3518833 17.1090517,61.8900333 L17.1090517,67.6111333 C17.799569,68.0846833 18.5068966,68.3541833 19.1056034,68.58005 C20.3159483,69.0356333 20.8163793,69.2255667 21,70.5422667 C21.5043103,74.1689667 23.6689655,76.3352333 26.7905172,76.3352333 C31.3862069,76.3352333 36.5056034,71.456 36.5056034,64.4567 L36.5056034,16.9733667 C36.5056034,17.68305 35.9262931,18.2567 35.2125,18.2567 C30.9336207,18.2567 27.4538793,21.71015 27.4538793,25.9567 C27.4538793,31.6174833 22.812931,36.2233667 17.1090517,36.2233667 C16.3952586,36.2233667 15.8159483,35.6497167 15.8159483,34.9400333 C15.8159483,34.23035 16.3952586,33.6567 17.1090517,33.6567 C21.387931,33.6567 24.8676724,30.20325 24.8676724,25.9567 C24.8676724,20.2959167 29.5086207,15.6900333 35.2125,15.6900333 C35.9262931,15.6900333 36.5056034,16.2636833 36.5056034,16.9733667 L36.5056034,5.42336667 C36.5068966,2.85798333 32.5487069,0 29.8668103,0 L29.8668103,0 Z M26.162069,42.3294667 C26.162069,39.8475 27.137069,37.5131167 28.9073276,35.7575167 C29.412931,35.2557333 30.2301724,35.2557333 30.7357759,35.7575167 C31.2413793,36.2593 31.2413793,37.0703667 30.7357759,37.57215 C29.4543103,38.8439333 28.7482759,40.5340833 28.7482759,42.3294667 C28.7482759,44.12485 29.4543103,45.815 30.7357759,47.0867833 C31.2413793,47.5885667 31.2413793,48.3996333 30.7357759,48.9014167 C29.4543103,50.1732 28.7482759,51.86335 28.7482759,53.6587333 C28.7482759,55.4541167 29.4543103,57.1442667 30.7357759,58.41605 C31.2413793,58.9178333 31.2413793,59.7289 30.7357759,60.2306833 C30.4836207,60.4809333 30.1525862,60.6067 29.8215517,60.6067 C29.4905172,60.6067 29.1594828,60.4809333 28.9073276,60.2306833 C27.137069,58.4750833 26.162069,56.1394167 26.162069,53.6587333 C26.162069,51.5823 26.8538793,49.6136667 28.1146552,47.9941 C26.8525862,46.3771 26.162069,44.4071833 26.162069,42.3294667 L26.162069,42.3294667 Z M16.9099138,45.53395 C16.9099138,45.5352333 16.9099138,45.5352333 16.9099138,45.53395 C16.4068966,46.8904333 17.1090517,48.4009167 18.474569,48.9001333 C19.1443966,49.1465333 19.487069,49.88445 19.2387931,50.5492167 C19.0461207,51.0664 18.5521552,51.3872333 18.0258621,51.3872333 C17.8771552,51.3872333 17.7258621,51.3615667 17.5771552,51.3076667 C14.874569,50.31565 13.487069,47.32805 14.4827586,44.6458833 L14.4827586,44.6433167 C14.987069,43.2881167 14.2849138,41.7776333 12.9181034,41.2771333 C12.2482759,41.0320167 11.9056034,40.2928167 12.1538793,39.62805 C12.4008621,38.9632833 13.1482759,38.6257667 13.8155172,38.8683167 C16.5206897,39.8629 17.9081897,42.8517833 16.9099138,45.53395 L16.9099138,45.53395 Z M19.2659483,25.86815 C18.4875,27.9612667 16.4831897,29.26 14.3560345,29.26 C13.7560345,29.26 13.1469828,29.15605 12.5521552,28.9391667 C11.1827586,28.4348167 9.66465517,29.1342333 9.15905172,30.4907167 C8.96637931,31.0079 8.47241379,31.3287333 7.94612069,31.3287333 C7.79741379,31.3287333 7.64612069,31.3030667 7.4987069,31.2491667 C6.82887931,31.00405 6.4862069,30.26485 6.73318966,29.6000833 C7.73017241,26.9179167 10.7443966,25.54475 13.4469828,26.5290667 C14.8112069,27.03085 16.3344828,26.3352833 16.8400862,24.9775167 C17.087069,24.31275 17.8331897,23.97395 18.5017241,24.2177833 C19.1715517,24.4641833 19.5142241,25.2033833 19.2659483,25.86815 L19.2659483,25.86815 Z" id="Shape"></path>
                            <path d="M72.1693966,28.8223833 C71.1698276,27.2798167 70.6099138,23.9316 70.7353448,21.89495 C70.9900862,17.7151333 69.0543103,13.5674 65.9133621,11.2599667 L59.8073276,11.2599667 C57.6685345,11.2599667 55.9280172,12.9873333 55.9280172,15.1099667 C55.9280172,15.81965 55.3487069,16.3933 54.6349138,16.3933 C53.9211207,16.3933 53.3418103,15.81965 53.3418103,15.1099667 C53.3418103,11.5718167 56.2422414,8.6933 59.8073276,8.6933 L60.8107759,8.6933 C60.7551724,8.60731667 60.6956897,8.53673333 60.6426724,8.42765 C58.9836207,5.005 57.1512931,3.79225 53.6443966,3.79225 C53.1310345,3.79225 52.5737069,3.81535 51.9375,3.85513333 C51.5741379,3.85513333 51.0090517,3.25325 50.4607759,2.67318333 C49.5025862,1.65678333 48.2224138,0.29645 46.1935345,0.06545 L45.5405172,0 C41.3586207,0 37.824569,2.35106667 37.824569,5.13333333 L37.824569,64.1666667 C37.824569,71.1659667 42.9439655,76.0439167 47.5396552,76.0452 L47.5409483,76.0452 C50.6612069,76.0452 52.824569,73.8789333 53.3301724,70.2522333 C53.5137931,68.9355333 54.0142241,68.7456 55.224569,68.2900167 C55.8232759,68.06415 56.5306034,67.79465 57.2211207,67.3211 L57.2211207,61.6 C57.2211207,58.06185 54.3206897,55.1833333 50.7556034,55.1833333 C50.0418103,55.1833333 49.4625,54.6096833 49.4625,53.9 C49.4625,53.1903167 50.0418103,52.6166667 50.7556034,52.6166667 C55.7469828,52.6166667 59.8073276,56.6476167 59.8073276,61.6 L59.8073276,63.2067333 C59.8409483,63.0758333 59.8732759,62.9462167 59.9030172,62.8255833 C60.1706897,61.72705 60.2883621,61.3613 60.9931034,61.00325 C64.9086207,59.0076667 67.8568966,53.4854833 67.5646552,48.6883833 C67.5530172,48.4881833 67.6267241,48.2328 67.7340517,47.9581667 L63.8741379,43.5139833 C62.4556034,41.1783167 59.9689655,39.7833333 57.2211207,39.7833333 C51.5172414,39.7833333 46.8762931,35.17745 46.8762931,29.5166667 C46.8762931,28.8069833 47.4556034,28.2333333 48.1693966,28.2333333 C48.8831897,28.2333333 49.4625,28.8069833 49.4625,29.5166667 C49.4625,33.7632167 52.9422414,37.2166667 57.2211207,37.2166667 C60.8456897,37.2166667 64.1301724,39.0377167 66.0297414,42.0946167 L69.1318966,45.6622833 C69.6284483,44.99495 70.1586207,44.3455833 70.5827586,43.82455 C71.2293103,43.0327333 71.787931,42.3487167 72.1693966,41.76095 C74.6353448,37.9520167 74.6353448,32.6313167 72.1693966,28.8223833 L72.1693966,28.8223833 Z M47.1672414,39.7563833 C50.5784483,43.1431 50.5784483,48.6537333 47.1672414,52.0391667 C46.0021552,53.19545 45.3594828,54.7328833 45.3594828,56.3652833 C45.3594828,57.9976833 46.0021552,59.5351167 47.1672414,60.6914 C47.6728448,61.1931833 47.6728448,62.00425 47.1672414,62.5060333 C46.9150862,62.7575667 46.5840517,62.8833333 46.2530172,62.8833333 C45.9219828,62.8833333 45.5909483,62.7575667 45.3387931,62.5073167 C43.6849138,60.8659333 42.7732759,58.6842667 42.7732759,56.3665667 C42.7732759,54.0488667 43.6849138,51.8672 45.3387931,50.2258167 C47.7413793,47.8401 47.7413793,43.9580167 45.3387931,41.5723 C44.8331897,41.0705167 44.8331897,40.25945 45.3387931,39.7576667 C45.8443966,39.2558833 46.662931,39.2558833 47.1672414,39.7563833 L47.1672414,39.7563833 Z M62.6017241,30.0813333 C62.0922414,30.1686 61.5853448,30.2135167 61.0849138,30.2135167 C56.9159483,30.2135167 53.2137931,27.2400333 52.4676724,23.0281333 C52.1818966,21.41755 51.2831897,20.0135833 49.9357759,19.0754667 C48.587069,18.1386333 46.9525862,17.7741667 45.3284483,18.0616333 C44.6237069,18.1771333 43.9538793,17.7164167 43.8310345,17.0182833 C43.7068966,16.32015 44.1775862,15.6541 44.8810345,15.5321833 C47.1866379,15.1330667 49.5077586,15.6438333 51.4202586,16.97465 C53.3327586,18.3054667 54.6090517,20.2984833 55.0137931,22.5841 C55.6008621,25.90665 58.8064655,28.13965 62.1530172,27.5518833 C62.8603448,27.4299667 63.5275862,27.8971 63.650431,28.5952333 C63.7758621,29.2933667 63.3051724,29.9594167 62.6017241,30.0813333 L62.6017241,30.0813333 Z" id="Shape"></path>
                        </g>
                    </g>
                </g>
            </g>
        </g>
    </g>
</svg>