<?xml version="1.0" encoding="UTF-8" standalone="no"?>
<svg width="139px" height="148px" viewBox="0 0 139 148" version="1.1" xmlns="http://www.w3.org/2000/svg" xmlns:xlink="http://www.w3.org/1999/xlink">
    <!-- Generator: Sketch 39.1 (31720) - http://www.bohemiancoding.com/sketch -->
    <title>calendar</title>
    <desc>Created with Sketch.</desc>
    <defs>
        <polygon id="path-1" points="138.385311 147.815 0.185333333 147.815 0.185333333 0 69.2853222 0 138.385311 0 138.385311 147.815"></polygon>
    </defs>
    <g id="Welcome" stroke="none" stroke-width="1" fill="none" fill-rule="evenodd">
        <g id="Desktop-HD-/-Desktop" transform="translate(-654.000000, -1917.000000)">
            <g id="calendar" transform="translate(654.000000, 1917.000000)">
                <g id="Group-3">
                    <mask id="mask-2" fill="white">
                        <use xlink:href="#path-1"></use>
                    </mask>
                    <g id="Clip-2"></g>
                    <path d="M135.911111,9.86358333 L118.607156,9.86358333 L118.607156,2.46975 C118.607156,1.10691667 117.5106,0 116.1484,0 L98.8444444,0 C97.4822444,0 96.3702444,1.10691667 96.3702444,2.46975 L96.3702444,9.86358333 L42.0150667,9.86358333 L42.0150667,2.46975 C42.0150667,1.10691667 40.9030667,0 39.5408667,0 L22.2369111,0 C20.8747111,0 19.7627111,1.10691667 19.7627111,2.46975 L19.7627111,9.86358333 L2.4742,9.86358333 C1.10891111,9.86358333 0,10.9735833 0,12.3333333 L0,145.53025 C0,146.893083 1.10891111,148 2.4742,148 L135.911111,148 C137.273311,148 138.385311,146.893083 138.385311,145.53025 L138.385311,12.3333333 C138.385311,10.9735833 137.273311,9.86358333 135.911111,9.86358333 L135.911111,9.86358333 Z M101.318644,19.7271667 L113.6742,19.7271667 L113.6742,4.9395 L101.318644,4.9395 L101.318644,19.7271667 Z M24.7111111,19.7271667 L37.0666667,19.7271667 L37.0666667,4.9395 L24.7111111,4.9395 L24.7111111,19.7271667 Z M4.9484,14.8030833 L19.7627111,14.8030833 L19.7627111,22.1969167 C19.7627111,23.55975 20.8747111,24.6666667 22.2369111,24.6666667 L39.5408667,24.6666667 C40.9030667,24.6666667 42.0150667,23.55975 42.0150667,22.1969167 L42.0150667,14.8030833 L96.3702444,14.8030833 L96.3702444,22.1969167 C96.3702444,23.55975 97.4822444,24.6666667 98.8444444,24.6666667 L116.1484,24.6666667 C117.5106,24.6666667 118.607156,23.55975 118.607156,22.1969167 L118.607156,14.8030833 L133.436911,14.8030833 L133.436911,37 L4.9484,37 L4.9484,14.8030833 Z M4.9484,143.0605 L133.436911,143.0605 L133.436911,41.9395 L4.9484,41.9395 L4.9484,143.0605 Z" id="Fill-1" fill="#417505" mask="url(#mask-2)"></path>
                </g>
                <path d="M88.9630889,56.7271667 L22.2369111,56.7271667 L22.2369111,128.272833 L116.1484,128.272833 L116.1484,56.7271667 L88.9630889,56.7271667 Z M71.6591333,78.9395 L88.9630889,78.9395 L88.9630889,61.6666667 L71.6591333,61.6666667 L71.6591333,78.9395 Z M71.6591333,101.136417 L88.9630889,101.136417 L88.9630889,83.8635833 L71.6591333,83.8635833 L71.6591333,101.136417 Z M49.4222222,101.136417 L66.7261778,101.136417 L66.7261778,83.8635833 L49.4222222,83.8635833 L49.4222222,101.136417 Z M49.4222222,78.9395 L66.7261778,78.9395 L66.7261778,61.6666667 L49.4222222,61.6666667 L49.4222222,78.9395 Z M27.1853111,78.9395 L44.4738222,78.9395 L44.4738222,61.6666667 L27.1853111,61.6666667 L27.1853111,78.9395 Z M27.1853111,101.136417 L44.4738222,101.136417 L44.4738222,83.8635833 L27.1853111,83.8635833 L27.1853111,101.136417 Z M27.1853111,123.333333 L44.4738222,123.333333 L44.4738222,106.0605 L27.1853111,106.0605 L27.1853111,123.333333 Z M49.4222222,123.333333 L66.7261778,123.333333 L66.7261778,106.0605 L49.4222222,106.0605 L49.4222222,123.333333 Z M71.6591333,123.333333 L88.9630889,123.333333 L88.9630889,106.0605 L71.6591333,106.0605 L71.6591333,123.333333 Z M93.8960444,123.333333 L111.2,123.333333 L111.2,106.0605 L93.8960444,106.0605 L93.8960444,123.333333 Z M93.8960444,101.136417 L111.2,101.136417 L111.2,83.8635833 L93.8960444,83.8635833 L93.8960444,101.136417 Z M93.8960444,78.9395 L111.2,78.9395 L111.2,61.6666667 L93.8960444,61.6666667 L93.8960444,78.9395 Z" id="Fill-4" fill="#7ED321"></path>
            </g>
        </g>
    </g>
</svg>