<?xml version="1.0" encoding="UTF-8" standalone="no"?>
<svg width="20px" height="20px" viewBox="0 0 20 20" version="1.1" xmlns="http://www.w3.org/2000/svg" xmlns:xlink="http://www.w3.org/1999/xlink">
    <!-- Generator: Sketch 39.1 (31720) - http://www.bohemiancoding.com/sketch -->
    <title>call [#191]</title>
    <desc>Created with Sketch.</desc>
    <defs></defs>
    <g id="Welcome" stroke="none" stroke-width="1" fill="none" fill-rule="evenodd">
        <g id="Desktop-HD-/-Desktop" transform="translate(-933.000000, -15.000000)" fill="#417505">
            <g id="Group-5" transform="translate(924.000000, 9.000000)">
                <path d="M19.0001745,14 L19.0001745,16 L21.0001745,16 C21.0001745,14.895 20.1051745,14 19.0001745,14 M19.0001745,10 L19.0001745,12 C21.2061745,12 23.0001745,13.794 23.0001745,16 L25.0001745,16 C25.0001745,12.686 22.3141745,10 19.0001745,10 M19.0001745,6 L19.0001745,8 C23.4111745,8 27.0001745,11.589 27.0001745,16 L29.0001745,16 C29.0001745,10.477 24.5231745,6 19.0001745,6 M23.6521745,24.234 C23.6411745,24.265 23.6401745,24.27 23.6521745,24.234 M23.1171745,21.578 C22.4221745,21.204 21.7191745,20.778 20.9921745,20.481 C19.5871745,19.908 19.6821745,21.602 18.6791745,22.151 C18.0271745,22.508 17.1071745,21.861 16.5381745,21.503 C15.5441745,20.877 14.6631745,20.053 13.9311745,19.1 C13.5561745,18.613 12.7281745,17.697 12.8301745,17.014 C12.9921745,15.93 14.2741745,15.876 13.9071745,14.55 C13.7111745,13.84 13.3601745,13.141 13.0971745,12.457 C12.7451745,11.54 12.6001745,10.953 11.5731745,11.003 C10.8311745,11.039 10.3391745,11.356 9.88317454,11.951 C8.64917454,13.558 8.83517454,15.725 9.66417454,17.488 C10.8381745,19.983 12.8501745,22.335 14.9991745,23.855 C16.4611745,24.889 18.3871745,25.828 20.1571745,25.987 C21.4531745,26.104 23.2661745,25.403 23.7301745,23.996 C23.6981745,24.094 23.6671745,24.189 23.6521745,24.234 C23.6631745,24.199 23.6871745,24.128 23.7301745,23.996 C23.7771745,23.854 23.8001745,23.783 23.8111745,23.751 C23.7971745,23.793 23.7651745,23.891 23.7311745,23.993 C24.1391745,22.753 24.1891745,22.155 23.1171745,21.578 M23.8111745,23.751 C23.8191745,23.727 23.8191745,23.725 23.8111745,23.751" id="call-[#191]"></path>
            </g>
        </g>
    </g>
</svg>