<?xml version="1.0" encoding="UTF-8" standalone="no"?>
<svg width="571px" height="455px" viewBox="0 0 571 455" version="1.1" xmlns="http://www.w3.org/2000/svg" xmlns:xlink="http://www.w3.org/1999/xlink">
    <!-- Generator: Sketch 39.1 (31720) - http://www.bohemiancoding.com/sketch -->
    <title>deer-shape</title>
    <desc>Created with Sketch.</desc>
    <defs></defs>
    <g id="Welcome" stroke="none" stroke-width="1" fill="none" fill-rule="evenodd">
        <g id="Desktop-HD-/-Desktop" transform="translate(-423.000000, -695.000000)" fill="#EEEEEE">
            <g id="deer-shape" transform="translate(423.000000, 695.000000)">
                <g id="Capa_1">
                    <path d="M559.734257,155.821159 C549.045257,151.300159 539.057257,145.564159 529.983257,138.322159 C527.111257,136.029159 524.393257,133.503159 521.839257,130.864159 C517.130257,125.996159 511.712257,122.064159 505.592257,119.371159 C499.354257,116.625159 495.380257,112.104159 492.830257,106.041159 C490.602257,100.745159 489.480257,95.1441593 488.435257,89.5331593 C488.174257,88.1301593 488.418257,86.6281593 488.448257,85.1721593 C488.472257,84.0621593 488.578257,82.9481593 488.562257,81.8431593 C488.525257,79.7131593 487.852257,78.0491593 485.803257,76.8691593 C482.821257,75.1551593 480.785257,72.5031593 479.606257,69.2471593 C478.757257,66.9011593 478.529257,64.5061593 479.243257,62.0751593 C480.206257,58.8031593 481.243257,55.5511593 482.140257,52.2631593 C482.577257,50.6631593 482.874257,49.0071593 483.045257,47.3551593 C483.241257,45.4451593 482.801257,43.6131593 481.797257,41.9531593 C480.585257,39.9581593 478.545257,39.3261593 476.627257,40.6671593 C475.297257,41.5981593 474.077257,42.8541593 473.180257,44.2131593 C469.402257,49.9411593 466.575257,56.1221593 464.836257,62.7811593 C464.204257,65.2131593 462.829257,67.2081593 461.063257,68.9261593 C458.321257,71.5861593 455.685257,71.9371593 452.328257,70.1141593 C446.893257,67.1601593 441.491257,64.1411593 436.040257,61.2111593 C432.980257,59.5671593 429.888257,57.9761593 426.750257,56.4781593 C417.007257,51.8191593 412.809257,39.4601593 417.473257,29.5751593 C419.133257,26.0501593 419.982257,22.2061593 420.255257,18.2901593 C420.320257,17.3351593 420.218257,16.3351593 420.010257,15.3971593 C419.472257,12.9701593 417.835257,11.8971593 415.379257,12.4111593 C412.560257,12.9981593 410.251257,14.5161593 408.406257,16.7151593 C405.367257,20.3461593 403.396257,24.5731593 401.939257,29.0161593 C400.642257,32.9821593 399.541257,37.0171593 398.496257,41.0561593 C397.599257,44.5361593 396.028257,47.5391593 393.147257,49.7711593 C391.446257,51.0891593 389.516257,51.8401593 387.362257,51.8761593 C378.116257,52.0351593 368.859257,52.2601593 359.654257,51.2151593 C354.963257,50.6811593 350.311257,49.7711593 345.643257,49.0241593 C345.370257,48.9791593 345.084257,48.9261593 344.839257,48.8041593 C338.883257,45.8381593 333.260257,42.4031593 329.082257,37.0621593 C326.332257,33.5451593 324.867257,29.5261593 325.165257,25.0341593 C325.268257,23.4721593 325.826257,21.9251593 326.296257,20.4071593 C326.952257,18.2821593 327.765257,16.2051593 328.417257,14.0751593 C328.895257,12.5161593 328.817257,12.3291593 328.059257,10.2561593 C326.227257,10.5821593 324.460257,10.8561593 322.709257,11.2231593 C320.873257,11.6071593 319.070257,12.1541593 317.230257,12.5041593 C314.783257,12.9691593 312.501257,12.4431593 310.551257,10.8721593 C309.148257,9.74215926 307.797257,8.53415926 306.512257,7.27315926 C305.321257,6.10615926 304.305257,4.76015926 303.105257,3.60115926 C301.959257,2.49915926 300.755257,1.41415926 299.433257,0.545159255 C297.556257,-0.686840745 295.830257,0.255159255 295.704257,2.50715926 C295.610257,4.14715926 296.087257,5.69015926 296.980257,7.06115926 C298.877257,9.97815926 300.771257,12.8951593 302.742257,15.7591593 C304.753257,18.6841593 306.916257,21.5041593 308.898257,24.4461593 C310.930257,27.4651593 312.460257,30.7411593 313.313257,34.3071593 C313.859257,36.5921593 314.014257,38.8031593 311.794257,40.3171593 C309.497257,41.8831593 307.062257,41.7941593 304.716257,40.3861593 C301.358257,38.3741593 298.290257,35.9591593 295.687257,33.0381593 C292.913257,29.9211593 290.293257,26.6691593 287.588257,23.4871593 C284.613257,19.9901593 281.660257,16.4731593 278.624257,13.0301593 C276.637257,10.7781593 274.409257,8.78315926 271.533257,7.67315926 C271.337257,7.59915926 271.150257,7.50615926 270.954257,7.43615926 C267.588257,6.26515926 266.368257,7.21615926 266.597257,10.8471593 C266.740257,13.1441593 267.686257,15.1591593 268.910257,17.0401593 C270.277257,19.1371593 271.631257,21.2631593 273.194257,23.2171593 C277.756257,28.9211593 282.301257,34.6501593 287.070257,40.1781593 C293.194257,47.2731593 300.811257,52.5161593 309.086257,56.7871593 C314.949257,59.8191593 321.322257,61.3411593 327.769257,62.5731593 C330.152257,63.0301593 332.580257,63.2261593 334.828257,64.3271593 C340.238257,66.9711593 343.702257,73.4301593 342.657257,79.1781593 C342.274257,81.2791593 341.400257,83.1481593 339.748257,84.5801593 C338.773257,85.4251593 338.104257,86.4491593 337.786257,87.7091593 C337.500257,88.8551593 337.655257,89.9171593 338.312257,90.9001593 C340.217257,93.7601593 342.706257,95.9021593 345.982257,97.0611593 C346.639257,97.2931593 347.288257,97.5791593 347.965257,97.7141593 C352.482257,98.5951593 356.390257,100.888159 360.368257,103.022159 C367.969257,107.102159 375.709257,110.904159 383.714257,114.136159 C393.759257,118.192159 404.081257,121.235159 414.926257,122.231159 C416.097257,122.337159 417.284257,122.276159 418.463257,122.313159 C420.960257,122.391159 423.457257,122.411159 425.945257,122.578159 C428.442257,122.749159 430.744257,123.704159 432.653257,125.230159 C435.836257,127.776159 439.389257,129.640159 442.971257,131.489159 C444.019257,132.031159 445.051257,132.615159 446.051257,133.243159 C450.078257,135.785159 451.367257,139.616159 449.438257,144.039159 C448.471257,146.250159 447.304257,148.450159 445.831257,150.351159 C441.968257,155.353159 439.895257,161.057159 438.993257,167.181159 C438.144257,172.954159 437.704257,178.789159 437.039257,184.591159 C436.215257,191.772159 435.591257,198.989159 434.444257,206.121159 C432.852257,216.032159 430.213257,225.713159 427.050257,235.241159 C426.153257,237.946159 425.288257,240.672159 424.256257,243.327159 C421.179257,251.210159 415.859257,257.350159 409.144257,262.352159 C402.518257,267.285159 395.117257,270.585159 387.123257,272.573159 C372.224257,276.278159 357.082257,277.302159 341.786257,276.490159 C332.884257,276.016159 324.336257,273.965159 315.935257,271.067159 C306.441257,267.796159 297.400257,263.491159 288.269257,259.382159 C282.055257,256.587159 275.820257,253.800159 269.452257,251.397159 C265.902257,250.059159 262.088257,249.325159 258.334257,248.643159 C251.492257,247.399159 244.621257,246.305159 237.738257,245.314159 C233.054257,244.641159 228.325257,244.392159 223.592257,244.747159 C222.707257,244.812159 221.756257,244.927159 220.977257,245.307159 C216.191257,247.632159 211.157257,249.264159 206.020257,250.525159 C200.557257,251.864159 195.404257,253.863159 190.643257,256.837159 C183.719257,261.161159 175.971257,263.104159 168.101257,264.679159 C163.890257,265.524159 159.667257,265.368159 155.461257,264.454159 C154.539257,264.254159 153.511257,264.205159 152.593257,264.392159 C151.018257,264.714159 150.496257,265.710159 150.679257,267.314159 C151.226257,272.112159 153.919257,275.327159 158.096257,277.453159 C159.459257,278.146159 160.879257,278.725159 162.209257,279.473159 C162.984257,279.906159 163.702257,280.501159 164.326257,281.137159 C165.575257,282.414159 165.877257,283.937159 164.999257,285.539159 C163.901257,287.551159 162.943257,289.688159 161.531257,291.464159 C157.447257,296.609159 154.330257,302.349159 150.898257,307.902159 C150.021257,309.317159 149.103257,310.713159 148.104257,312.047159 C146.464257,314.231159 144.310257,315.601159 141.612257,316.303159 C138.295257,317.163159 134.999257,317.918159 131.543257,317.759159 C128.740257,317.629159 126.092257,316.992159 123.444257,315.985159 C119.156257,314.353159 114.774257,312.974159 110.102257,312.807159 C107.528257,312.712159 105.476257,313.373159 103.619257,315.344159 C99.9312571,319.261159 96.7892571,323.577159 93.6562571,327.919159 C89.9962571,332.990159 86.3812571,338.107159 82.4402571,342.953159 C80.1352571,345.789159 77.3232571,348.245159 74.5622571,350.669159 C71.6322571,353.235159 68.5032571,355.572159 65.4432571,357.984159 C62.6772571,360.163159 59.5192571,361.611159 56.2592571,362.868159 C53.1422571,364.071159 49.9842571,365.173159 46.9202571,366.499159 C44.9492571,367.352159 42.9662571,368.318159 41.2572571,369.596159 C36.3242571,373.284159 30.7592571,374.908159 24.7092571,375.165159 C23.3912571,375.222159 22.0532571,375.356159 20.7512571,375.210159 C16.2472571,374.704159 12.4032571,376.319159 8.84225714,378.800159 C5.65525714,381.016159 3.12225714,383.863159 1.18425714,387.226159 C-0.182742864,389.596159 -0.284742864,392.125159 0.462257136,394.688159 C0.972257136,396.443159 2.21625714,397.389159 4.06125714,397.724159 C12.5232571,399.257159 20.6792571,398.286159 28.5612571,394.888159 C30.8992571,393.880159 33.4002571,393.656159 35.9052571,393.525159 C38.0552571,393.412159 40.2092571,393.341159 42.3602571,393.203159 C45.1142571,393.024159 47.7012571,392.273159 50.0432571,390.780159 C57.0852571,386.284159 64.1272571,381.796159 71.1532571,377.279159 C76.3712571,373.925159 81.6922571,370.743159 87.3672571,368.225159 C89.3172571,367.361159 91.4472571,366.850159 93.5362571,366.372159 C96.5432571,365.683159 99.3542571,364.781159 101.933257,362.904159 C104.630257,360.942159 107.787257,359.697159 111.080257,358.942159 C113.928257,358.290159 116.731257,358.380159 119.493257,359.428159 C124.764257,361.427159 130.032257,363.426159 135.327257,365.368159 C142.336257,367.938159 149.440257,370.104159 156.967257,370.565159 C158.628257,370.668159 160.264257,371.116159 161.925257,371.267159 C165.275257,371.569159 168.596257,371.234159 171.876257,370.540159 C177.457257,369.361159 183.031257,368.153159 188.596257,366.926159 C191.803257,366.220159 194.859257,365.106159 197.833257,363.686159 C199.640257,362.826159 201.611257,362.287159 203.524257,361.659159 C207.881257,360.226159 212.227257,358.754159 216.625257,357.444159 C219.085257,356.710159 221.615257,356.175159 224.144257,355.715159 C232.855257,354.132159 241.680257,353.576159 250.505257,353.430159 C253.443257,353.381159 256.446257,354.132159 259.335257,354.846159 C263.117257,355.776159 266.809257,357.053159 270.555257,358.138159 C273.227257,358.909159 275.945257,359.537159 278.605257,360.354159 C281.861257,361.354159 285.121257,362.374159 288.307257,363.569159 C296.707257,366.719159 305.113257,369.869159 313.444257,373.202159 C319.275257,375.536159 325.195257,377.552159 331.302257,378.983159 C339.870257,380.991159 348.569257,381.970159 357.365257,381.892159 C360.278257,381.868159 363.187257,381.439159 366.104257,381.378159 C370.865257,381.272159 375.467257,382.047159 380.041257,383.520159 C385.704257,385.344159 391.050257,387.804159 396.350257,390.436159 C402.111257,393.295159 408.083257,395.421159 414.485257,396.495159 C419.692257,397.368159 424.808257,398.801159 429.945257,400.061159 C437.521257,401.925159 445.142257,403.484159 452.964257,403.916159 C456.225257,404.095159 459.476257,404.409159 462.724257,404.756159 C463.670257,404.859159 464.638257,405.172159 465.502257,405.580159 C468.578257,407.033159 469.370257,409.272159 468.064257,412.451159 C467.052257,414.920159 465.310257,416.771159 463.168257,418.285159 C460.582257,420.109159 457.722257,421.361159 454.682257,422.215159 C445.535257,424.777159 436.160257,425.988159 426.730257,426.841159 C422.993257,427.180159 419.244257,427.397159 415.506257,427.772159 C414.356257,427.886159 413.185257,428.205159 412.119257,428.653159 C409.492257,429.767159 406.950257,431.077159 404.318257,432.182159 C401.148257,433.512159 397.851257,434.370159 394.363257,433.969159 C393.331257,433.851159 392.315257,433.602159 391.303257,433.358159 C387.920257,432.546159 384.550257,431.685159 381.163257,430.901159 C380.290257,430.698159 379.372257,430.677159 378.471257,430.616159 C370.017257,430.041159 366.202257,437.254159 365.839257,442.758159 C365.798257,443.374159 365.872257,444.011159 365.978257,444.623159 C366.264257,446.251159 367.055257,447.319159 368.801257,447.825159 C372.776257,448.980159 376.860257,449.339159 380.931257,449.841159 C389.005257,450.837159 397.076257,451.849159 405.138257,452.913159 C410.728257,453.647159 416.309257,454.362159 421.968257,453.876159 C425.191257,453.599159 428.255257,452.864159 431.176257,451.420159 C434.546257,449.756159 437.949257,448.140159 441.417257,446.704159 C443.914257,445.672159 446.570257,445.018159 449.116257,444.097159 C454.954257,441.988159 460.935257,440.502159 467.059257,439.458159 C468.973257,439.131159 470.751257,437.899159 472.535257,436.973159 C474.755257,435.823159 476.921257,434.558159 479.103257,433.338159 C479.406257,433.170159 479.707257,432.991159 479.989257,432.787159 C487.451257,427.422159 493.689257,420.963159 497.468257,412.469159 C498.672257,409.759159 499.369257,406.814159 500.177257,403.938159 C500.390257,403.178159 500.239257,402.277159 500.104257,401.469159 C499.390257,397.258159 497.179257,393.864159 494.250257,390.861159 C491.532257,388.079159 488.212257,386.153159 484.817257,384.411159 C478.386257,381.114159 471.846257,378.021159 465.355257,374.844159 C464.543257,374.448159 463.694257,374.101159 462.944257,373.608159 C457.133257,369.797159 451.373257,365.905159 445.522257,362.151159 C443.841257,361.074159 441.919257,360.373159 440.104257,359.500159 C439.292257,359.108159 438.447257,358.766159 437.664257,358.324159 C433.400257,355.922159 432.278257,350.581159 435.347257,346.733159 C436.323257,345.508159 437.608257,344.457159 438.925257,343.584159 C450.994257,335.559159 460.802257,325.391159 468.232257,312.935159 C471.435257,307.562159 474.687257,302.217159 477.979257,296.901159 C478.926257,295.371159 479.991257,293.881159 481.195257,292.547159 C482.537257,291.058159 483.378257,289.348159 484.047257,287.521159 C487.397257,278.377159 489.306257,268.924159 490.175257,259.243159 C491.325257,246.394159 490.791257,233.543159 490.233257,220.690159 C490.024257,215.900159 489.731257,211.106159 489.718257,206.312159 C489.710257,202.208159 490.926257,198.348159 493.056257,194.835159 C494.186257,192.970159 495.900257,191.799159 498.078257,191.408159 C505.120257,190.147159 511.803257,187.908159 518.143257,184.550159 C519.481257,183.840159 521.223257,183.685159 522.789257,183.652159 C525.633257,183.591159 528.485257,183.966159 531.329257,183.881159 C537.852257,183.690159 544.381257,183.441159 550.892257,183.008159 C558.640257,182.494159 564.131257,178.059159 568.697257,172.213159 C569.203257,171.564159 569.583257,170.797159 569.926257,170.042159 C571.419257,166.754159 570.889257,163.845159 568.310257,161.266159 C565.847257,158.803159 562.893257,157.155159 559.734257,155.821159 L559.734257,155.821159 Z M458.547257,101.030159 C456.788257,102.780159 454.818257,104.204159 452.464257,104.951159 C450.485257,105.579159 448.444257,106.073159 446.393257,106.404159 C443.581257,106.861159 440.734257,107.085159 437.911257,107.444159 C434.434257,107.889159 431.130257,108.795159 428.025257,110.537159 C424.667257,112.426159 421.040257,113.638159 417.147257,113.903159 C413.623257,114.144159 410.383257,113.368159 407.474257,111.324159 C405.050257,109.618159 403.956257,107.240159 404.055257,104.335159 C404.149257,101.512159 405.217257,99.0511593 407.188257,97.0281593 C408.253257,95.9301593 409.419257,94.9391593 410.513257,93.8701593 C410.803257,93.5881593 410.983257,93.1931593 411.431257,92.5321593 C409.069257,93.4221593 407.135257,94.1801593 405.176257,94.8781593 C399.820257,96.7961593 394.923257,95.8861593 390.456257,92.4181593 C389.591257,91.7451593 388.697257,91.1121593 387.820257,90.4601593 C387.395257,92.7041593 387.204257,94.7241593 386.608257,96.6171593 C385.453257,100.293159 382.683257,101.668159 378.950257,100.754159 C374.078257,99.5631593 369.998257,96.9631593 366.388257,93.6221593 C360.852257,88.4971593 356.004257,82.7691593 351.982257,76.3721593 C351.211257,75.1441593 350.570257,73.8101593 350.028257,72.4641593 C347.914257,67.2371593 351.606257,62.3451593 355.984257,61.5871593 C357.551257,61.3171593 359.159257,61.1501593 360.742257,61.1751593 C370.746257,61.3141593 380.750257,61.4681593 390.750257,61.7141593 C397.078257,61.8691593 403.427257,62.1711593 409.560257,63.9011593 C415.317257,65.5251593 420.992257,67.4261593 426.696257,69.2411593 C428.483257,69.8121593 430.331257,70.3101593 431.992257,71.1551593 C440.748257,75.5981593 449.165257,80.5841593 456.831257,86.7741593 C458.687257,88.2711593 459.935257,90.1521593 460.613257,92.3961593 C461.591257,95.6531593 461.031257,98.5541593 458.547257,101.030159 L458.547257,101.030159 Z" id="Shape"></path>
                </g>
            </g>
        </g>
    </g>
</svg>