<?xml version="1.0" encoding="UTF-8" standalone="no"?>
<svg width="161px" height="128px" viewBox="0 0 161 128" version="1.1" xmlns="http://www.w3.org/2000/svg" xmlns:xlink="http://www.w3.org/1999/xlink">
    <!-- Generator: Sketch 39.1 (31720) - http://www.bohemiancoding.com/sketch -->
    <title>deer-shape copy</title>
    <desc>Created with Sketch.</desc>
    <defs>
        <linearGradient x1="105.216331%" y1="82.8613639%" x2="0%" y2="82.8613665%" id="linearGradient-1">
            <stop stop-color="#FFC400" offset="0%"></stop>
            <stop stop-color="#FFF869" offset="13.4426818%"></stop>
            <stop stop-color="#FFC400" offset="30.859375%"></stop>
            <stop stop-color="#FFFFFF" offset="48.5644274%"></stop>
            <stop stop-color="#FFDB00" offset="63.9650469%"></stop>
            <stop stop-color="#F6A623" offset="100%"></stop>
        </linearGradient>
    </defs>
    <g id="Welcome" stroke="none" stroke-width="1" fill="none" fill-rule="evenodd">
        <g id="Desktop-HD-/-Desktop" transform="translate(-912.000000, -87.000000)" fill="url(#linearGradient-1)">
            <g id="deer-shape-copy" transform="translate(912.000000, 87.000000)">
                <g id="Capa_1">
                    <path d="M157.499167,43.7392301 C154.491474,42.4701787 151.68103,40.860075 149.12777,38.8272349 C148.31964,38.1835864 147.554844,37.4745345 146.836194,36.7337633 C145.511166,35.3673085 143.986638,34.2635902 142.26458,33.5076612 C140.509319,32.7368549 139.391107,31.4678035 138.673583,29.7659104 C138.046663,28.2793154 137.730953,26.7071064 137.436909,25.1320904 C137.363468,24.7382662 137.432125,24.3166526 137.440567,23.9079512 C137.44732,23.5963726 137.477146,23.2836711 137.472644,22.973496 C137.462233,22.3756018 137.272863,21.9085146 136.696311,21.5772868 C135.85723,21.0961645 135.284336,20.3517442 134.952587,19.4377801 C134.713693,18.7792545 134.649538,18.1069744 134.850445,17.4245891 C135.121416,16.5061339 135.413209,15.5932927 135.665609,14.6703462 C135.788573,14.2212238 135.872143,13.7563822 135.920259,13.2926633 C135.97541,12.7565235 135.851602,12.2422784 135.569095,11.7763139 C135.22806,11.2163145 134.65404,11.0389111 134.114349,11.4153318 C133.740111,11.6766649 133.396825,12.029226 133.144426,12.4106993 C132.081364,14.0185573 131.285897,15.7535732 130.796574,17.6227644 C130.61874,18.3054304 130.23184,18.8654298 129.734919,19.347675 C128.96337,20.0943409 128.221647,20.1928671 127.277047,19.6811483 C125.747736,18.8519561 124.22771,18.0045184 122.693897,17.182063 C121.832868,16.7205898 120.962834,16.2739937 120.079857,15.8535029 C117.338352,14.5457147 116.15711,11.0765251 117.469476,8.30179099 C117.936571,7.31231827 118.175464,6.23330178 118.252281,5.13407478 C118.270571,4.86600487 118.24187,4.58530339 118.183343,4.3220054 C118.031959,3.64074291 117.571337,3.33955022 116.880262,3.48383078 C116.087046,3.64860255 115.437335,4.0747074 114.918185,4.69196995 C114.063065,5.71119703 113.508461,6.89772219 113.098488,8.14487887 C112.733535,9.25814094 112.423734,10.3907714 112.129689,11.5245247 C111.87729,12.5013658 111.435238,13.3443124 110.624577,13.9708381 C110.145946,14.3408026 109.602879,14.5516095 108.996782,14.5617147 C106.395123,14.6063463 103.79037,14.6695041 101.200248,14.376171 C99.8802851,14.2262764 98.5712958,13.9708381 97.2578045,13.7611541 C97.1809872,13.7485225 97.1005119,13.7336453 97.0315733,13.6993998 C95.3556619,12.8668392 93.7734507,11.9026296 92.5978365,10.403403 C91.8240359,9.41617587 91.4118112,8.28803662 91.4956631,7.02712557 C91.5246454,6.58866986 91.6816566,6.15442467 91.8139062,5.72831982 C91.9984928,5.13182917 92.2272564,4.5488122 92.4107175,3.95091804 C92.5452181,3.51330444 92.5232703,3.46081326 92.3099827,2.87891909 C91.7944908,2.97042777 91.2972887,3.04733998 90.8045888,3.15035742 C90.2879714,3.25814679 89.7806395,3.4116905 89.2628966,3.50993602 C88.5743547,3.64046221 87.9322409,3.49281323 87.3835459,3.0518312 C86.9887669,2.73463853 86.6086198,2.39555114 86.2470439,2.04158657 C85.9119179,1.71400794 85.6260337,1.33618375 85.2883753,1.01085074 C84.9659115,0.701517703 84.6271275,0.396956597 84.2551404,0.15302701 C83.7269863,-0.192797214 83.241321,0.0716235808 83.2058668,0.703763315 C83.1794169,1.16411374 83.3136361,1.59723613 83.5649103,1.98207786 C84.098692,2.80088408 84.6316296,3.6196903 85.1862336,4.42361934 C85.7520929,5.24467117 86.3607222,6.03624934 86.9184214,6.8620731 C87.4901897,7.70951087 87.9207043,8.62908892 88.1607231,9.6300704 C88.3143577,10.2714733 88.3579719,10.8921043 87.7333038,11.3170863 C87.0869693,11.7566648 86.401804,11.7316824 85.7416817,11.3364547 C84.7968009,10.7716833 83.9335208,10.0937892 83.2010833,9.27386022 C82.4205295,8.39891371 81.6833086,7.48607249 80.9221702,6.59288038 C80.0850586,5.6112673 79.2541375,4.62404019 78.3998616,3.657585 C77.8407555,3.02544526 77.2138363,2.46544581 76.4045815,2.15386716 C76.3494307,2.13309525 76.2968122,2.10699002 76.2416613,2.08734091 C75.2945294,1.75863948 74.9512433,2.02558659 75.0156798,3.04481366 C75.0559174,3.68958497 75.3221048,4.25519845 75.6665165,4.78319793 C76.0511657,5.37182894 76.432157,5.96860029 76.8719571,6.51709098 C78.155622,8.11821223 79.4345033,9.72635101 80.7764143,11.2780688 C82.4995979,13.2696458 84.6428849,14.7413637 86.9713213,15.9402397 C88.6210642,16.7913266 90.4143119,17.2185542 92.2283819,17.5643785 C92.8989153,17.692659 93.5821109,17.7476765 94.2146577,18.0567289 C95.7369345,18.7989036 96.7116419,20.6119544 96.4175977,22.2254265 C96.3098284,22.8151804 96.0639005,23.3398114 95.5990573,23.7417759 C95.3247099,23.9789687 95.1364653,24.266407 95.0469858,24.6200909 C94.9665105,24.9417748 95.0101247,25.2398797 95.1949927,25.5158093 C95.7310255,26.3186155 96.4313854,26.9198781 97.353193,27.2452111 C97.538061,27.3103339 97.7206779,27.3906145 97.9111736,27.4285092 C99.1821762,27.6758072 100.281817,28.3194557 101.401155,28.9184726 C103.53994,30.0637347 105.717837,31.1309617 107.9703,32.0381889 C110.796783,33.1767141 113.701208,34.0308887 116.752796,34.3104674 C117.082295,34.3402217 117.416295,34.323099 117.748045,34.3334849 C118.450655,34.3553796 119.153266,34.3609937 119.853345,34.4078708 C120.555956,34.4558708 121.203697,34.7239407 121.740856,35.1522911 C122.636495,35.8669571 123.636245,36.3901847 124.644156,36.9092017 C124.939044,37.0613419 125.22943,37.2252716 125.510812,37.4015521 C126.643938,38.1150953 127.006639,39.1904626 126.463853,40.4320053 C126.191757,41.0526363 125.863384,41.6701795 125.448908,42.203793 C124.361929,43.6078618 123.778624,45.2089831 123.524818,46.9279989 C123.285924,48.5484886 123.162116,50.1863817 122.974997,51.8150117 C122.743138,53.8307291 122.567556,55.8565516 122.244811,57.8585146 C121.796851,60.640547 121.054283,63.358018 120.164272,66.0325417 C119.911872,66.7918392 119.668477,67.5570315 119.378091,68.3022939 C118.512278,70.5150637 117.015326,72.2385708 115.125845,73.6426396 C113.261408,75.02734 111.178899,75.9536549 108.929531,76.5116894 C104.73722,77.5516884 100.476534,77.8391267 96.1725139,77.6111971 C93.667651,77.4781446 91.2623974,76.9024259 88.8985068,76.088953 C86.2270658,75.1707784 83.6830908,73.9623585 81.1137914,72.8089562 C79.3652834,72.0243955 77.6108663,71.2420805 75.8190255,70.5675548 C74.8201193,70.1919763 73.7469282,69.9859414 72.69062,69.794503 C70.7654041,69.4453103 68.8320281,69.1382229 66.8952755,68.8600477 C65.5772821,68.6711356 64.2466264,68.601241 62.9148452,68.70089 C62.6658221,68.7191356 62.3982278,68.7514163 62.1790312,68.8580828 C60.8323367,69.5107138 59.4158596,69.9688186 57.9704,70.3227832 C56.4332099,70.6986424 54.9832483,71.2597647 53.6435884,72.0945709 C51.6952992,73.3083241 49.5151511,73.8537271 47.3006745,74.2958319 C46.1157747,74.5330247 44.9274984,74.4892352 43.7440055,74.2326741 C43.4845713,74.1765338 43.1953105,74.1627794 42.9370018,74.2152706 C42.4938251,74.3056565 42.3469437,74.5852351 42.3984366,75.0354803 C42.5523526,76.382286 43.3101144,77.2847413 44.4854472,77.8815126 C44.8689709,78.0760387 45.2685334,78.2385649 45.6427715,78.4485296 C45.8608426,78.5700734 46.0628749,78.7370907 46.2384573,78.9156169 C46.5899035,79.2740727 46.6748808,79.701581 46.4278274,80.1512648 C46.1188699,80.7160362 45.8493059,81.3158952 45.4519945,81.8144211 C44.3028302,83.2586302 43.4257624,84.8698567 42.4600593,86.428592 C42.2132872,86.8257846 41.9549785,87.2176439 41.6738779,87.5920996 C41.2124113,88.2051517 40.6063144,88.5897127 39.8471457,88.7867651 C38.9138014,89.0281684 37.9863662,89.240098 37.0139099,89.1954665 C36.2251961,89.1589753 35.4800964,88.9801685 34.7349968,88.6975021 C33.5284306,88.2393973 32.2954145,87.8523099 30.9807976,87.8054328 C30.2565202,87.7787661 29.6791243,87.9643098 29.1565979,88.5175724 C28.1188609,89.6170801 27.2347585,90.8285877 26.3531886,92.0473935 C25.3233303,93.4708308 24.3061343,94.9071802 23.1972076,96.2674596 C22.548622,97.063529 21.7573758,97.7529318 20.9804799,98.4333522 C20.1560306,99.1536322 19.2755862,99.8096316 18.4145571,100.486684 C17.6362544,101.098332 16.7476499,101.504788 15.8303445,101.85763 C14.9532767,102.195313 14.0646722,102.504647 13.2025176,102.876857 C12.6479136,103.116295 12.089933,103.387453 11.6090511,103.746189 C10.2209935,104.781416 8.65510249,105.237275 6.95274115,105.309416 C6.58187963,105.325416 6.20539046,105.36303 5.83903104,105.322047 C4.57168634,105.180012 3.49005378,105.633345 2.48805234,106.329766 C1.59128778,106.9518 0.878547079,107.750957 0.333228688,108.694956 C-0.0514205598,109.360219 -0.0801215278,110.070113 0.130070855,110.789551 C0.273575695,111.282182 0.623614952,111.547725 1.14276481,111.64176 C3.52381963,112.072076 5.81877154,111.799515 8.03662477,110.845691 C8.69449598,110.562744 9.39823246,110.499867 10.1030945,110.463095 C10.7080658,110.431376 11.3141628,110.411446 11.9194155,110.372709 C12.6943417,110.322463 13.422277,110.111657 14.0812737,109.692569 C16.062766,108.430535 18.0442584,107.170747 20.0212486,105.902819 C21.4895001,104.961346 22.9867339,104.068154 24.583577,103.361347 C25.1322719,103.118821 25.7316157,102.975383 26.3194228,102.841208 C27.1655385,102.647804 27.9565035,102.394612 28.6821877,101.867735 C29.4410751,101.316999 30.3293982,100.967525 31.2559892,100.755596 C32.0573653,100.572578 32.8460791,100.597841 33.6232563,100.892017 C35.1064211,101.453139 36.5887416,102.014261 38.0786595,102.559383 C40.0508663,103.280786 42.0498043,103.888786 44.1677669,104.018189 C44.6351424,104.047101 45.0954835,104.172855 45.562859,104.215241 C46.5054888,104.300013 47.4399586,104.205978 48.3628917,104.011171 C49.9332848,103.680224 51.5017083,103.341137 53.0675994,102.996716 C53.9699916,102.798541 54.8298951,102.48584 55.6667253,102.087243 C56.1751826,101.84584 56.7297866,101.694542 57.2680705,101.518262 C58.494052,101.116016 59.7169383,100.702824 60.9544566,100.335105 C61.6466564,100.12907 62.3585529,99.9788946 63.0701681,99.8497719 C65.521287,99.4054215 68.0044835,99.2493514 70.48768,99.208369 C71.3143805,99.1946146 72.1593707,99.4054215 72.9722834,99.6058423 C74.0364703,99.8668947 75.0753328,100.22535 76.1293899,100.529912 C76.8812427,100.746332 77.6460391,100.922613 78.3945153,101.151946 C79.3106952,101.432648 80.2280007,101.718963 81.1244839,102.054401 C83.488093,102.938611 85.8533904,103.822821 88.1975842,104.758399 C89.8383229,105.413556 91.5041045,105.97945 93.2225046,106.381134 C95.6333859,106.944783 98.0811283,107.219589 100.556165,107.197695 C101.375831,107.190958 102.194371,107.070537 103.015162,107.053414 C104.354822,107.02366 105.649742,107.241203 106.936784,107.654677 C108.53025,108.166676 110.034519,108.857202 111.525844,109.596008 C113.146885,110.398534 114.827299,110.995305 116.628707,111.296778 C118.093863,111.541831 119.533414,111.944076 120.978873,112.29776 C123.110623,112.820987 125.255036,113.258601 127.456006,113.379864 C128.373593,113.43011 129.288366,113.51825 130.202295,113.615653 C130.468482,113.644565 130.74086,113.732425 130.983974,113.846951 C131.849505,114.25481 132.07236,114.883301 131.704875,115.775651 C131.420116,116.468703 130.929949,116.988282 130.327229,117.413264 C129.599575,117.925263 128.794822,118.276701 127.939421,118.51642 C125.365619,119.235578 122.727662,119.575507 120.07423,119.814945 C119.022705,119.910103 117.967804,119.971015 116.915998,120.076278 C116.592409,120.108278 116.26291,120.197822 115.962957,120.323577 C115.223766,120.636278 114.508493,121.003997 113.767896,121.314172 C112.875915,121.687505 111.948198,121.928347 110.966737,121.815786 C110.676351,121.782663 110.390467,121.712768 110.105708,121.644277 C109.153793,121.416347 108.205535,121.174663 107.252494,120.954593 C107.006848,120.897611 106.748539,120.891716 106.495014,120.874594 C104.11621,120.71319 103.042738,122.73789 102.940596,124.282871 C102.929059,124.455783 102.949882,124.63459 102.979708,124.806379 C103.060183,125.263361 103.282757,125.56315 103.77405,125.705185 C104.892543,126.029395 106.041708,126.130167 107.187214,126.271079 C109.459092,126.550658 111.730127,126.834728 113.998629,127.133394 C115.571554,127.339429 117.141948,127.540131 118.734289,127.40371 C119.641183,127.325956 120.503337,127.11964 121.325254,126.714307 C122.273512,126.24722 123.231055,125.793606 124.206888,125.390519 C124.909499,125.100835 125.65685,124.917256 126.373248,124.65873 C128.015957,124.066731 129.698902,123.649608 131.422086,123.356556 C131.960651,123.264767 132.460949,122.918942 132.962934,122.659013 C133.587602,122.336206 134.197076,121.981119 134.811051,121.638663 C134.89631,121.591505 134.981006,121.54126 135.060356,121.483996 C137.160029,119.978033 138.91529,118.164982 139.978633,115.780704 C140.317417,115.020003 140.51354,114.193337 140.740896,113.386039 C140.800831,113.172706 140.758342,112.919794 140.720356,112.692987 C140.519449,111.510954 139.897313,110.558253 139.073145,109.715306 C138.308349,108.934395 137.37416,108.393764 136.418868,107.904782 C134.6093,106.979309 132.769062,106.111099 130.942611,105.219311 C130.714129,105.108153 130.475236,105.010749 130.264199,104.872363 C128.629088,103.80261 127.008327,102.71012 125.361961,101.656367 C124.888958,101.354051 124.348142,101.157279 123.837433,100.912227 C123.608951,100.802192 123.371183,100.706192 123.150861,100.582122 C121.951048,99.9078771 121.635337,98.4086505 122.498899,97.3285112 C122.773528,96.9846519 123.135104,96.6896346 123.505684,96.4445822 C126.901684,94.1919529 129.661479,91.3377802 131.752147,87.8413626 C132.653414,86.3331535 133.568468,84.8328041 134.494778,83.340595 C134.761247,82.9111218 135.060919,82.4928765 135.399703,82.1184208 C135.777317,81.7004563 136.01396,81.2204567 136.202204,80.7076151 C137.144834,78.1408808 137.681992,75.4874097 137.926513,72.7699387 C138.250103,69.1632053 138.099845,65.5559106 137.942833,61.9480545 C137.884025,60.6034944 137.80158,59.2578115 137.797922,57.9121286 C137.795671,56.7601297 138.137831,55.676622 138.737175,54.6905177 C139.055137,54.1670094 139.537425,53.838308 140.150276,53.7285537 C142.131768,53.3745892 144.012244,52.7460985 145.796206,51.803503 C146.172695,51.6042049 146.662863,51.5606962 147.103507,51.551433 C147.903758,51.5343102 148.706259,51.6395733 149.50651,51.6157137 C151.341965,51.5620997 153.179108,51.492205 155.011187,51.3706613 C157.191335,51.2263807 158.736403,49.9814697 160.021194,48.3404888 C160.163573,48.1583135 160.270498,47.9430155 160.367012,47.7310859 C160.787116,46.8081394 160.637983,45.9915788 159.912299,45.2676497 C159.219255,44.5762819 158.388052,44.1136859 157.499167,43.7392301 L157.499167,43.7392301 Z M129.026962,28.3593153 C128.532011,28.8505429 127.977689,29.2502618 127.315315,29.4599458 C126.75846,29.6362263 126.184159,29.7748929 125.607045,29.8678051 C124.815799,29.9960856 124.014704,30.0589628 123.220362,30.1597346 C122.241997,30.2846468 121.312311,30.5389623 120.43862,31.0279443 C119.493739,31.5581894 118.473166,31.8983996 117.377746,31.9727855 C116.386155,32.0404345 115.474478,31.8226102 114.655937,31.2488563 C113.973867,30.7699796 113.666035,30.1024715 113.693892,29.2870337 C113.720342,28.4946134 114.020858,27.8038071 114.575462,27.235948 C114.875134,26.9277377 115.203225,26.6495626 115.511057,26.3494927 C115.592658,26.2703349 115.643307,26.1594578 115.769366,25.9739141 C115.104742,26.2237384 114.560549,26.4365102 114.009321,26.6324398 C112.502239,27.1708252 111.124311,26.9153869 109.867378,25.9419141 C109.623982,25.753002 109.372427,25.575318 109.125655,25.3923006 C109.006067,26.0221948 108.952323,26.5892118 108.78462,27.1205797 C108.459623,28.1524383 107.680195,28.5384028 106.629796,28.2818417 C105.258903,27.9475262 104.110864,27.2177024 103.095075,26.2798787 C101.537344,24.8412836 100.173204,23.2334256 99.0414852,21.4377782 C98.8245397,21.0930768 98.6441738,20.718621 98.4916647,20.3407968 C97.8968231,18.8735702 98.9356856,17.5003785 100.167576,17.2876068 C100.608502,17.2118174 101.060964,17.1649402 101.506392,17.1719578 C104.321338,17.2109753 107.136284,17.2542033 109.950104,17.3232559 C111.73069,17.3667646 113.517184,17.4515365 115.2429,17.93715 C116.862817,18.3930092 118.45966,18.9266227 120.064663,19.4360959 C120.567493,19.5963765 121.087487,19.7361658 121.554862,19.9733586 C124.018643,21.2205152 126.387036,22.6200928 128.544111,24.357635 C129.066356,24.7778451 129.41752,25.3058446 129.608297,25.9357387 C129.883489,26.8499834 129.725915,27.6642984 129.026962,28.3593153 L129.026962,28.3593153 Z" id="Shape"></path>
                </g>
            </g>
        </g>
    </g>
</svg>