<?xml version="1.0" encoding="UTF-8" standalone="no"?>
<svg width="107px" height="64px" viewBox="0 0 107 64" version="1.1" xmlns="http://www.w3.org/2000/svg" xmlns:xlink="http://www.w3.org/1999/xlink">
    <!-- Generator: Sketch 39.1 (31720) - http://www.bohemiancoding.com/sketch -->
    <title>eco-energy</title>
    <desc>Created with Sketch.</desc>
    <defs></defs>
    <g id="Welcome" stroke="none" stroke-width="1" fill="none" fill-rule="evenodd">
        <g id="Desktop-HD-/-Desktop" transform="translate(-360.000000, -376.000000)" fill="#7ED321">
            <g id="eco-energy" transform="translate(360.000000, 376.000000)">
                <g id="Capa_1">
                    <g id="Group">
                        <polygon id="Shape" points="0 63.4278209 19.8361791 63.4278209 19.8361791 58.5609552 5.73325373 58.5609552 5.73325373 47.5510448 18.9449552 47.5510448 18.9449552 42.7586866 5.73325373 42.7586866 5.73325373 33.2102687 19.8361791 33.2102687 19.8361791 28.3653731 0 28.3653731"></polygon>
                        <path d="M42.3307463,32.7785075 C43.7817313,32.7785075 45.1744478,32.9896119 46.4869254,33.4108657 C47.8089552,33.8359403 49.0574328,34.3278806 50.24,34.8866866 L52.3061493,30.1134328 C49.2656716,28.6099104 45.9596418,27.8600597 42.3737313,27.8600597 C38.9654925,27.8600597 36.0071642,28.5869851 33.4777313,30.041791 C30.9521194,31.4975522 29.0254328,33.5952239 27.6871642,36.3281194 C26.3536716,39.0610149 25.6850149,42.2514627 25.6850149,45.896597 C25.6850149,51.686209 27.0586269,56.1356418 29.8087164,59.2439403 C32.558806,62.353194 36.4962388,63.9092537 41.6353433,63.9092537 C45.12,63.9092537 48.238806,63.3924776 50.9841194,62.3493731 L50.9841194,57.433791 C49.480597,57.8980299 48.0343881,58.2772537 46.6416716,58.5705075 C45.2489552,58.8656716 43.8113433,59.0127761 42.3278806,59.0127761 C38.8890746,59.0127761 36.2583881,57.9075821 34.4482388,55.7010149 C32.6294925,53.4973134 31.7220299,50.2419104 31.7220299,45.9395821 C31.7220299,41.830209 32.6705672,38.6101493 34.5542687,36.2765373 C36.4456119,33.945791 39.0361791,32.7785075 42.3307463,32.7785075 L42.3307463,32.7785075 Z" id="Shape"></path>
                        <path d="M105.724179,1.52071642 C105.331582,1.38029851 104.709731,1.0841791 103.978985,0.920835821 C103.240597,0.746029851 102.246209,0.442268657 101.239403,0.399283582 C100.224955,0.339104478 99.0777313,0.352477612 97.8263881,0.461373134 C96.6113433,0.612298507 95.3810149,0.927522388 94.0666269,1.32298507 C92.7598806,1.72322388 91.5629851,2.34316418 90.2944478,3.01946269 C89.0526567,3.7158209 87.9340896,4.56883582 86.8164776,5.49635821 C85.7638209,6.44776119 84.7637015,7.488 83.8543284,8.59701493 C83.0242388,9.72513433 82.1874627,10.8933731 81.5656119,12.1227463 C80.9179701,13.3435224 80.3620299,14.5986866 79.9799403,15.8739104 C79.1536716,18.4023881 78.8852537,20.9786269 78.9406567,23.2616119 C78.993194,24.4202985 79.1106866,25.4911045 79.2902687,26.4711642 C79.4602985,27.4292537 79.7287164,28.3099701 79.9474627,29.0225672 C78.2185075,28.4064478 76.326209,28.0195821 74.184597,27.9307463 C74.2075224,27.9135522 74.2275821,27.8982687 74.2466866,27.8810746 C73.9257313,27.8667463 73.6448955,27.8056119 73.3143881,27.8056119 C68.0253134,27.8056119 63.9522388,29.3568955 61.0951642,32.4594627 C58.2447761,35.5629851 56.8186269,40.0057313 56.8186269,45.7915224 L56.8186269,45.8536119 L56.8186269,45.9128358 C56.8186269,47.0476418 56.9179701,48.0964776 57.0287761,49.1290746 L57.0354627,49.126209 C57.4958806,53.3062687 58.8131343,56.686806 61.0751045,59.1875821 C63.7296716,62.1296716 67.5047164,63.6360597 72.3037612,63.825194 C72.2837015,63.8423881 72.264597,63.8576716 72.2445373,63.8748657 C72.5654925,63.8882388 72.8463284,63.9493731 73.1768358,63.9493731 C78.4659104,63.9493731 82.5389851,62.3971343 85.3960597,59.2945672 C88.2464478,56.1929552 89.672597,51.750209 89.672597,45.9644179 L89.672597,45.9023284 L89.672597,45.8431045 C89.672597,44.7082985 89.574209,43.6594627 89.4595821,42.6268657 L89.4528955,42.6306866 C88.9953433,38.4496716 87.6780896,35.0729552 85.4132537,32.5664478 C84.6442985,31.7048358 83.7387463,31.0056119 82.7816119,30.391403 L83.9947463,30.3885373 C84.5306269,30.190806 85.1123582,29.9797015 85.7007761,29.7084179 C86.5671642,29.3358806 87.4851343,28.9012537 88.4107463,28.4093134 C89.3516418,27.9240597 90.2667463,27.3614328 91.2095522,26.7730149 C92.1380299,26.1836418 93.0263881,25.5178507 93.8899104,24.8348657 C94.7400597,24.1260896 95.5825672,23.4134925 96.3352836,22.6254328 C97.0870448,21.8268657 97.8454925,21.0693731 98.4931343,20.206806 C99.8266269,18.542806 100.945194,16.7813731 101.841194,14.9311045 C102.311164,14.0570746 102.691343,13.0464478 103.062925,12.1332537 C103.448836,11.225791 103.762149,10.2237612 104.077373,9.3038806 C104.390687,8.40023881 104.678209,7.48608955 104.933254,6.59868657 C105.21409,5.68167164 105.455761,4.87928358 105.659224,4.22495522 C105.894209,3.57253731 106.037493,2.88955224 106.168358,2.48740299 C106.286806,2.03271642 106.34603,1.7958209 106.34603,1.7958209 C106.34603,1.7958209 106.115821,1.68119403 105.724179,1.52071642 L105.724179,1.52071642 Z M83.2458507,49.8856119 L83.2391642,49.8884776 C83.089194,50.807403 82.8733134,51.6441791 82.615403,52.4351045 C82.4912239,52.7980896 82.376597,53.1639403 82.2333134,53.4973134 C82.1482985,53.6893134 82.0594627,53.8755821 81.9725373,54.0589851 C81.6716418,54.6512239 81.3411343,55.2138507 80.9561791,55.7038806 C80.0439403,56.8682985 78.886209,57.7050746 77.5078209,58.2610149 C76.2784478,58.7481791 74.8723582,59.0156418 73.2685373,59.0156418 C69.8526567,59.0156418 67.2668657,57.9008955 65.5245373,55.6685373 C63.782209,53.4390448 62.9100896,50.1664478 62.9100896,45.8488358 C62.9100896,44.3911642 63.0476418,43.0997015 63.249194,41.8837015 C63.249194,41.8837015 63.249194,41.8808358 63.2558806,41.8808358 C63.4058507,40.9619104 63.6226866,40.1251343 63.8796418,39.334209 C64.0009552,38.9712239 64.1117612,38.6044179 64.2617313,38.272 C64.3400597,38.0790448 64.4355821,37.8927761 64.5234627,37.7093731 C64.823403,37.1180896 65.1539104,36.5554627 65.5369552,36.0644776 C66.4520597,34.9010149 67.609791,34.0642388 68.9891343,33.5082985 C70.2175522,33.0192239 71.6169552,32.7517612 73.2284179,32.7517612 C76.6442985,32.7517612 79.2291343,33.8674627 80.9714627,36.1007761 C82.713791,38.3302687 83.5868657,41.6028657 83.5868657,45.9204776 C83.5830448,47.3781493 83.4454925,48.6686567 83.2458507,49.8856119 L83.2458507,49.8856119 Z M93.4199403,11.9183284 C93.1381493,12.1485373 92.7722985,12.3758806 92.4255522,12.7369552 C92.0663881,13.0846567 91.6575522,13.4734328 91.2229254,13.8985075 C90.8169552,14.3579701 90.3794627,14.8632836 89.9219104,15.3905672 C89.497791,15.9493731 89.0488358,16.5397015 88.5884179,17.1462687 C87.7325373,18.4109851 86.8690149,19.7941493 86.1038806,21.2288955 C84.5545075,24.0974328 83.3050746,27.1092537 82.4816716,29.4027463 C82.3899701,29.6472836 82.3116418,29.8755821 82.2333134,30.0991045 C81.7098507,29.8010746 81.207403,29.4734328 80.6380896,29.2365373 C80.7097313,29.0693731 80.7756418,28.9174925 80.8539701,28.7407761 C81.8875224,26.4635224 83.4044179,23.4956418 85.2088358,20.6958806 C86.1048358,19.3002985 87.095403,17.9610746 88.0659104,16.7498507 C88.5884179,16.1652537 89.0851343,15.6026269 89.5627463,15.0667463 C90.065194,14.5709851 90.5494925,14.0952836 90.9936716,13.6673433 C91.4712836,13.2690149 91.9164179,12.910806 92.3013731,12.5917612 C92.680597,12.2545672 93.073194,12.049194 93.3664478,11.8495522 C93.9749254,11.4512239 94.3149851,11.2305672 94.3149851,11.2305672 C94.3149851,11.2305672 93.9940299,11.481791 93.4199403,11.9183284 L93.4199403,11.9183284 Z" id="Shape"></path>
                    </g>
                </g>
            </g>
        </g>
    </g>
</svg>