<?xml version="1.0" encoding="UTF-8" standalone="no"?>
<svg width="42px" height="42px" viewBox="0 0 42 42" version="1.1" xmlns="http://www.w3.org/2000/svg" xmlns:xlink="http://www.w3.org/1999/xlink">
    <!-- Generator: Sketch 39.1 (31720) - http://www.bohemiancoding.com/sketch -->
    <title>watering</title>
    <desc>Created with Sketch.</desc>
    <defs></defs>
    <g id="Welcome" stroke="none" stroke-width="1" fill="none" fill-rule="evenodd">
        <g id="Desktop-HD-/-Desktop" transform="translate(-268.000000, -4.000000)">
            <g id="watering" transform="translate(268.000000, 4.000000)">
                <g id="Layer_1">
                    <path d="M8.26451613,12.1935484 L33.7354839,12.1935484 C38.2064516,12.1935484 42,16.0548387 42,20.5258065 L42,21.5419355 L42,29.8064516 L33.7354839,29.8064516 L8.26451613,29.8064516 C3.79354839,29.8064516 0,25.9451613 0,21.4741935 L0,20.4580645 L0,12.1935484 L8.26451613,12.1935484 L8.26451613,12.1935484 Z" id="Shape" fill="#329908"></path>
                    <path d="M8.12903226,12.1935484 L33.7354839,12.1935484 C38.2064516,12.1935484 42,16.0548387 42,20.5258065 L42,21.5419355 L42,29.8064516 L33.7354839,29.8064516 L12.1935484,29.8064516" id="Shape" fill="#207700"></path>
                    <path d="M12.8709677,12.1935484 L33.7354839,12.1935484 C38.2064516,12.1935484 42,16.0548387 42,20.5258065 L42,21.5419355 L42,29.8064516 L33.7354839,29.8064516 L28.4516129,29.8064516" id="Shape" fill="#00420B"></path>
                    <path d="M12.1935484,33.7354839 L12.1935484,8.26451613 C12.1935484,3.79354839 16.0548387,0 20.5258065,0 L21.5419355,0 L29.8064516,0 L29.8064516,8.26451613 L29.8064516,33.7354839 C29.8064516,38.2064516 25.9451613,42 21.4741935,42 L20.4580645,42 L12.1935484,42 L12.1935484,33.7354839 L12.1935484,33.7354839 Z" id="Shape" fill="#329908"></path>
                    <path d="M29.8064516,0 L29.8064516,8.26451613 L29.8064516,33.7354839 C29.8064516,38.2064516 25.9451613,42 21.4741935,42 L20.4580645,42 L12.1935484,42 L12.1935484,33.7354839 L12.1935484,8.12903226" id="Shape" fill="#207700"></path>
                    <path d="M21.2709677,11.8548387 L19.5774194,31.9064516 L29.3322581,36.1741935 C29.6032258,35.4290323 29.8064516,34.616129 29.8064516,33.7354839 L29.8064516,15.5129032 L21.2709677,11.8548387 L21.2709677,11.8548387 Z" id="Shape" fill="#005B00"></path>
                    <path d="M27.1645161,22.4903226 L27.1645161,22.4903226 L21,10.0258065 L14.8354839,22.4903226 L14.8354839,22.4903226 C14.4290323,23.3032258 14.2258065,24.2516129 14.2258065,25.2677419 C14.2258065,28.9935484 17.2741935,31.9741935 20.9322581,31.9741935 C24.6580645,31.9741935 27.6387097,28.9935484 27.6387097,25.2677419 C27.7064516,24.2516129 27.5032258,23.3032258 27.1645161,22.4903226 L27.1645161,22.4903226 Z" id="Shape" fill="#14CFE2"></path>
                    <path d="M21,31.9741935 C24.7258065,31.9741935 27.7064516,28.9935484 27.7064516,25.2677419 C27.7064516,24.2516129 27.5032258,23.3709677 27.0967742,22.4903226 L27.0967742,22.4903226 L21,10.0258065" id="Shape" fill="#07BED6"></path>
                    <path d="M17.0032258,28.6548387 C17.816129,29.7387097 18.9,30.3483871 19.3741935,30.0096774 C19.8483871,29.6709677 19.5774194,28.4516129 18.7645161,27.3677419 C17.9516129,26.283871 16.8677419,25.6741935 16.3935484,26.0129032 C15.8516129,26.3516129 16.1903226,27.5709677 17.0032258,28.6548387 L17.0032258,28.6548387 Z" id="Shape" fill="#72F1F7"></path>
                </g>
            </g>
        </g>
    </g>
</svg>