<?xml version="1.0" encoding="UTF-8" standalone="no"?>
<svg width="136px" height="137px" viewBox="0 0 136 137" version="1.1" xmlns="http://www.w3.org/2000/svg" xmlns:xlink="http://www.w3.org/1999/xlink">
    <!-- Generator: Sketch 39.1 (31720) - http://www.bohemiancoding.com/sketch -->
    <title>Group 9</title>
    <desc>Created with Sketch.</desc>
    <defs>
        <linearGradient x1="0.25781251%" y1="49.7500002%" x2="101.257813%" y2="49.7500002%" id="linearGradient-1">
            <stop stop-color="#3023AE" offset="0%"></stop>
            <stop stop-color="#53A0FE" offset="47.5247532%"></stop>
            <stop stop-color="#B4ED50" offset="100%"></stop>
        </linearGradient>
    </defs>
    <g id="Welcome" stroke="none" stroke-width="1" fill="none" fill-rule="evenodd">
        <g id="Desktop-HD-/-Desktop" transform="translate(-328.000000, -914.000000)">
            <g id="Group-9" transform="translate(330.000000, 916.000000)">
                <ellipse id="Oval" stroke="#7ED321" stroke-width="4" cx="65.8027344" cy="66.1166992" rx="65.8027344" ry="66.1166992"></ellipse>
                <path d="M107,64.0013138 C107,51.8485881 96.9058,42 84.45,42 C72.068,42 61.9,51.8245867 61.9,64.0013138 C61.9,71.4497586 55.6106,78.0021498 47.55,78.0021498 C39.637,78.0021498 33.2,71.7217748 33.2,64.0013138 C33.2,56.2808528 39.637,50.0004777 47.55,50.0004777 C52.3347,50.0004777 56.5495,52.316616 59.1612,55.8408265 C60.178,52.8366471 61.4777,50.5565109 63.2776,48.2523734 C59.2145,44.3881426 53.6713,42 47.55,42 C35.0942,42 25,51.8485881 25,64.0013138 C25,76.1540395 35.0942,86.0026276 47.55,86.0026276 C59.932,86.0026276 70.1,76.1780409 70.1,64.0013138 C70.1,56.5328678 76.4058,50.0004777 84.45,50.0004777 C92.363,50.0004777 98.8,56.2808528 98.8,64.0013138 C98.8,68.8016004 96.3072,73.0418536 92.5229,75.5620041 L89.8128,68.5855875 L83.7448,77.9181448 L78.9642,85.2665836 L78.833,85.4705958 L98.5253,91.0309278 L95.479,83.1824592 C102.3506,79.4102339 107,72.2418059 107,64.0013138" id="arrow_infinity-[#239]" fill="url(#linearGradient-1)"></path>
            </g>
        </g>
    </g>
</svg>