<?xml version="1.0" encoding="UTF-8" standalone="no"?>
<svg width="136px" height="137px" viewBox="0 0 136 137" version="1.1" xmlns="http://www.w3.org/2000/svg" xmlns:xlink="http://www.w3.org/1999/xlink">
    <!-- Generator: Sketch 39.1 (31720) - http://www.bohemiancoding.com/sketch -->
    <title>Group 11</title>
    <desc>Created with Sketch.</desc>
    <defs>
        <linearGradient x1="50%" y1="0%" x2="50%" y2="100%" id="linearGradient-1">
            <stop stop-color="#FBDA61" offset="0%"></stop>
            <stop stop-color="#F76B1C" offset="100%"></stop>
        </linearGradient>
    </defs>
    <g id="Welcome" stroke="none" stroke-width="1" fill="none" fill-rule="evenodd">
        <g id="Desktop-HD-/-Desktop" transform="translate(-728.000000, -911.000000)">
            <g id="Group-11" transform="translate(730.000000, 913.000000)">
                <ellipse id="Oval-Copy" stroke="#7ED321" stroke-width="4" cx="65.8027344" cy="66.1166992" rx="65.8027344" ry="66.1166992"></ellipse>
                <path d="M66,73.2 C62.0292,73.2 58.8,69.9708 58.8,66 C58.8,62.0292 62.0292,58.8 66,58.8 C69.9708,58.8 73.2,62.0292 73.2,66 C73.2,69.9708 69.9708,73.2 66,73.2 L66,73.2 Z M102,62.4 L102,55.2 L94.8,55.2 L94.8,58.8 L91.2,62.4 L79.8924,62.4 C79.5756,61.1832 79.1004,60.042 78.4956,58.9728 L86.3652,51.6 L91.4556,51.6 L94.0008,53.7096 L99.0912,48.09 L94.0008,42.4704 L91.4556,44.4 L87.6,44.4 L87.6,40.5444 L89.5296,37.9992 L84.1296,32.9088 L78.4452,37.9992 L80.4,40.5444 L80.4,45.6348 L72.9228,53.4468 C71.8824,52.8708 70.7772,52.4136 69.6,52.1076 L69.6,40.8 L73.2,37.2 L76.8,37.2 L76.8,30 L69.6,30 L69.6,33.6 L66,37.2 L62.4,33.6 L62.4,30 L55.2,30 L55.2,37.2 L58.8,37.2 L62.4,40.8 L62.4,52.1076 C61.1832,52.4244 60.042,52.8996 58.9728,53.5044 L51.6,45.6348 L51.6,40.5444 L53.7096,37.9992 L48.09,32.9088 L42.4704,37.9992 L44.4,40.5444 L44.4,44.4 L40.5444,44.4 L37.9992,42.4704 L32.9088,47.8704 L37.9992,53.5548 L40.5444,51.6 L45.6348,51.6 L53.4468,59.0772 C52.8708,60.1176 52.4136,61.2228 52.1076,62.4 L40.8,62.4 L37.2,58.8 L37.2,55.2 L30,55.2 L30,62.4 L33.6,62.4 L37.2,66 L33.6,69.6 L30,69.6 L30,76.8 L37.2,76.8 L37.2,73.2 L40.8,69.6 L52.1076,69.6 C52.4244,70.8168 52.8996,71.958 53.5044,73.0272 L45.6348,80.4 L40.5444,80.4 L37.9992,78.2904 L32.9088,83.91 L37.9992,89.5296 L40.5444,87.6 L44.4,87.6 L44.4,91.4556 L42.4704,94.0008 L47.8704,99.0912 L53.5548,94.0008 L51.6,91.4556 L51.6,86.3652 L59.0772,78.5532 C60.1176,79.1292 61.2228,79.5864 62.4,79.8924 L62.4,91.2 L58.8,94.8 L55.2,94.8 L55.2,102 L62.4,102 L62.4,98.4 L66,94.8 L69.6,98.4 L69.6,102 L76.8,102 L76.8,94.8 L73.2,94.8 L69.6,91.2 L69.6,79.8924 C70.8168,79.5756 71.958,79.1004 73.0272,78.4956 L80.4,86.3652 L80.4,91.4556 L78.2904,94.0008 L83.91,99.0912 L89.5296,94.0008 L87.6,91.4556 L87.6,87.6 L91.4556,87.6 L94.0008,89.5296 L99.0912,84.1296 L94.0008,78.4452 L91.4556,80.4 L86.3652,80.4 L78.5532,72.9228 C79.1292,71.8824 79.5864,70.7772 79.8924,69.6 L91.2,69.6 L94.8,73.2 L94.8,76.8 L102,76.8 L102,69.6 L98.4,69.6 L94.8,66 L98.4,62.4 L102,62.4 Z" id="winter_is_coming-[#1258]" fill="url(#linearGradient-1)"></path>
            </g>
        </g>
    </g>
</svg>