<?xml version="1.0" encoding="UTF-8"?>
<svg width="44px" height="44px" viewBox="0 0 44 44" version="1.1" xmlns="http://www.w3.org/2000/svg" xmlns:xlink="http://www.w3.org/1999/xlink">
    <!-- Generator: Sketch 42 (36781) - http://www.bohemiancoding.com/sketch -->
    <title>ok</title>
    <desc>Created with Sketch.</desc>
    <defs>
        <circle id="path-1" cx="22" cy="22" r="22"></circle>
        <mask id="mask-2" maskContentUnits="userSpaceOnUse" maskUnits="objectBoundingBox" x="0" y="0" width="44" height="44" fill="white">
            <use xlink:href="#path-1"></use>
        </mask>
    </defs>
    <g id="Welcome" stroke="none" stroke-width="1" fill="none" fill-rule="evenodd">
        <g id="Tablet-Portrait" transform="translate(-426.000000, -2692.000000)">
            <g id="Group-12" transform="translate(234.000000, 2692.000000)">
                <g id="ok" transform="translate(192.000000, 0.000000)">
                    <g id="Group-2">
                        <g id="instagram">
                            <rect id="Rectangle" x="0" y="0" width="44" height="44"></rect>
                            <use id="Oval" stroke="#7ED321" mask="url(#mask-2)" stroke-width="4" xlink:href="#path-1"></use>
                        </g>
                    </g>
                    <path d="M22.5714286,22.5758929 C20.8928488,22.5758929 19.4598274,21.9821488 18.2723214,20.7946429 C17.0848155,19.6071369 16.4910714,18.1785798 16.4910714,16.5089286 C16.4910714,14.8303488 17.0848155,13.3973274 18.2723214,12.2098214 C19.4598274,11.0223155 20.8928488,10.4285714 22.5714286,10.4285714 C24.2500084,10.4285714 25.6830298,11.0223155 26.8705357,12.2098214 C28.0580417,13.3973274 28.6517857,14.8303488 28.6517857,16.5089286 C28.6517857,18.1785798 28.0580417,19.6071369 26.8705357,20.7946429 C25.6830298,21.9821488 24.2500084,22.5758929 22.5714286,22.5758929 Z M22.5714286,13.5089286 C21.7499959,13.5089286 21.0468779,13.8013364 20.4620536,14.3861607 C19.8772292,14.9709851 19.5848214,15.6785673 19.5848214,16.5089286 C19.5848214,17.3303613 19.8772292,18.0334792 20.4620536,18.6183036 C21.0468779,19.2031279 21.7499959,19.4955357 22.5714286,19.4955357 C23.3928613,19.4955357 24.0959792,19.2031279 24.6808036,18.6183036 C25.2656279,18.0334792 25.5580357,17.3303613 25.5580357,16.5089286 C25.5580357,15.6785673 25.2656279,14.9709851 24.6808036,14.3861607 C24.0959792,13.8013364 23.3928613,13.5089286 22.5714286,13.5089286 Z M29.5758929,23.3125 C29.6919649,23.5535726 29.7589285,23.7745526 29.7767857,23.9754464 C29.7946429,24.1763403 29.7745539,24.3571421 29.7165179,24.5178571 C29.6584819,24.6785722 29.5401795,24.8504455 29.3616071,25.0334821 C29.1830348,25.2165188 28.9933046,25.3816957 28.7924107,25.5290179 C28.5915169,25.67634 28.316966,25.861606 27.96875,26.0848214 C26.9419592,26.7366104 25.5357232,27.1562491 23.75,27.34375 L24.7276786,28.3080357 L28.3035714,31.8839286 C28.5714299,32.1607157 28.7053571,32.4910695 28.7053571,32.875 C28.7053571,33.2589305 28.5714299,33.5848201 28.3035714,33.8526786 L28.1428571,34.0267857 C27.86607,34.2946442 27.5357162,34.4285714 27.1517857,34.4285714 C26.7678552,34.4285714 26.4375014,34.2946442 26.1607143,34.0267857 C25.562497,33.4196398 24.3705446,32.2232232 22.5848214,30.4375 L19.0089286,34.0267857 C18.7321415,34.2946442 18.4017876,34.4285714 18.0178571,34.4285714 C17.6339267,34.4285714 17.3080371,34.2946442 17.0401786,34.0267857 L16.8794643,33.8526786 C16.6026772,33.5848201 16.4642857,33.2589305 16.4642857,32.875 C16.4642857,32.4910695 16.6026772,32.1607157 16.8794643,31.8839286 L21.4196429,27.34375 C19.6071338,27.1562491 18.1919694,26.7366104 17.1741071,26.0848214 C16.8258911,25.861606 16.5513403,25.67634 16.3504464,25.5290179 C16.1495526,25.3816957 15.9598223,25.2165188 15.78125,25.0334821 C15.6026777,24.8504455 15.4843753,24.6785722 15.4263393,24.5178571 C15.3683033,24.3571421 15.3482142,24.1763403 15.3660714,23.9754464 C15.3839287,23.7745526 15.4508923,23.5535726 15.5669643,23.3125 C15.6562504,23.1339277 15.7812492,22.9776792 15.9419643,22.84375 C16.1026794,22.7098208 16.2901775,22.6116075 16.5044643,22.5491071 C16.7187511,22.4866068 16.9687486,22.4955353 17.2544643,22.5758929 C17.54018,22.6562504 17.8303557,22.8124988 18.125,23.0446429 C18.1696431,23.0803573 18.2366067,23.129464 18.3258929,23.1919643 C18.415179,23.2544646 18.6071414,23.3638385 18.9017857,23.5200893 C19.19643,23.6763401 19.5044627,23.8124994 19.8258929,23.9285714 C20.147323,24.0446434 20.5580332,24.1517852 21.0580357,24.25 C21.5580382,24.3482148 22.0624975,24.3973214 22.5714286,24.3973214 C23.3839326,24.3973214 24.1607106,24.2834833 24.9017857,24.0558036 C25.6428608,23.8281239 26.1785698,23.6026797 26.5089286,23.3794643 L27.0178571,23.0446429 C27.3125015,22.8124988 27.6026771,22.6562504 27.8883929,22.5758929 C28.1741086,22.4955353 28.4241061,22.4866068 28.6383929,22.5491071 C28.8526796,22.6116075 29.0401778,22.7098208 29.2008929,22.84375 C29.3616079,22.9776792 29.4866067,23.1339277 29.5758929,23.3125 Z" id="" fill="#FFFFFF"></path>
                </g>
            </g>
        </g>
    </g>
</svg>