<?xml version="1.0" encoding="UTF-8" standalone="no"?>
<svg width="111px" height="20px" viewBox="0 0 111 20" version="1.1" xmlns="http://www.w3.org/2000/svg" xmlns:xlink="http://www.w3.org/1999/xlink">
    <!-- Generator: Sketch 39.1 (31720) - http://www.bohemiancoding.com/sketch -->
    <title>Pantashop</title>
    <desc>Created with Sketch.</desc>
    <defs></defs>
    <g id="Welcome" stroke="none" stroke-width="1" fill="none" fill-rule="evenodd">
        <g id="Desktop-HD-/-Desktop" transform="translate(-330.000000, -16.000000)" fill="#FFFFFF">
            <path d="M336.096,16.664 C336.800004,16.664 337.479997,16.8079986 338.136,17.096 C338.792003,17.3840014 339.371997,17.7719976 339.876,18.26 C340.380003,18.7480024 340.779999,19.3239967 341.076,19.988 C341.372001,20.6520033 341.52,21.3599962 341.52,22.112 C341.52,22.8640038 341.380001,23.5719967 341.1,24.236 C340.819999,24.9000033 340.440002,25.4799975 339.96,25.976 C339.479998,26.4720025 338.908003,26.8639986 338.244,27.152 C337.579997,27.4400014 336.864004,27.584 336.096,27.584 C335.727998,27.584 335.356002,27.5240006 334.98,27.404 C334.603998,27.2839994 334.240002,27.0880014 333.888,26.816 L333.888,30.368 C333.888,30.8320023 333.728002,31.2199984 333.408,31.532 C333.087998,31.8440016 332.704002,32 332.256,32 C331.807998,32 331.428002,31.8440016 331.116,31.532 C330.803998,31.2199984 330.648,30.8320023 330.648,30.368 L330.648,22.112 C330.664,21.4079965 330.815999,20.7280033 331.104,20.072 C331.392001,19.4159967 331.783998,18.8360025 332.28,18.332 C332.776002,17.8279975 333.347997,17.4240015 333.996,17.12 C334.644003,16.8159985 335.343996,16.664 336.096,16.664 L336.096,16.664 Z M336.096,24.344 C336.704003,24.344 337.223998,24.1320021 337.656,23.708 C338.088002,23.2839979 338.304,22.7520032 338.304,22.112 C338.304,21.8079985 338.244001,21.5200014 338.124,21.248 C338.003999,20.9759986 337.844001,20.740001 337.644,20.54 C337.443999,20.339999 337.212001,20.1840006 336.948,20.072 C336.683999,19.9599994 336.400002,19.904 336.096,19.904 C335.791998,19.904 335.504001,19.9599994 335.232,20.072 C334.959999,20.1840006 334.724001,20.339999 334.524,20.54 C334.323999,20.740001 334.168001,20.9759986 334.056,21.248 C333.943999,21.5200014 333.888,21.8079985 333.888,22.112 C333.888,22.4320016 333.943999,22.7279986 334.056,23 C334.168001,23.2720014 334.323999,23.507999 334.524,23.708 C334.724001,23.908001 334.959999,24.0639994 335.232,24.176 C335.504001,24.2880006 335.791998,24.344 336.096,24.344 L336.096,24.344 Z M348.744,20.408 C349.464004,20.4880004 350.139997,20.6959983 350.772,21.032 C351.404003,21.3680017 351.947998,21.7959974 352.404,22.316 C352.860002,22.8360026 353.219999,23.4279967 353.484,24.092 C353.748001,24.7560033 353.88,25.4559963 353.88,26.192 L353.88,30.44 C353.88,30.8720022 353.720002,31.2399985 353.4,31.544 C353.079998,31.8480015 352.720002,32 352.32,32 C351.759997,32 351.312002,31.7440026 350.976,31.232 C350.896,31.2640002 350.824,31.2999998 350.76,31.34 C350.696,31.3800002 350.632,31.4159998 350.568,31.448 C350.183998,31.6240009 349.792002,31.7599995 349.392,31.856 C348.975998,31.9520005 348.536002,32 348.072,32 C346.871994,32 345.800005,31.6760032 344.856,31.028 C343.911995,30.3799968 343.208002,29.5440051 342.744,28.52 C342.583999,28.1519982 342.46,27.7760019 342.372,27.392 C342.284,27.0079981 342.24,26.6080021 342.24,26.192 C342.24,25.7759979 342.284,25.3760019 342.372,24.992 C342.46,24.6079981 342.583999,24.2320018 342.744,23.864 C343.208002,22.8239948 343.911995,21.9840032 344.856,21.344 C345.800005,20.7039968 346.871994,20.384 348.072,20.384 L348.42,20.384 C348.524001,20.384 348.631999,20.3919999 348.744,20.408 L348.744,20.408 Z M348.048,28.88 C348.416002,28.88 348.763998,28.8120007 349.092,28.676 C349.420002,28.5399993 349.703999,28.3520012 349.944,28.112 C350.184001,27.8719988 350.375999,27.5880016 350.52,27.26 C350.664001,26.9319984 350.736,26.5760019 350.736,26.192 C350.736,25.8399982 350.664001,25.5000016 350.52,25.172 C350.375999,24.8439984 350.180001,24.5560012 349.932,24.308 C349.683999,24.0599988 349.396002,23.8640007 349.068,23.72 C348.739998,23.5759993 348.400002,23.504 348.048,23.504 C347.695998,23.504 347.360002,23.5759993 347.04,23.72 C346.719998,23.8640007 346.436001,24.0599988 346.188,24.308 C345.939999,24.5560012 345.744001,24.8439984 345.6,25.172 C345.455999,25.5000016 345.384,25.8399982 345.384,26.192 C345.384,26.5600018 345.459999,26.9079984 345.612,27.236 C345.764001,27.5640016 345.963999,27.8479988 346.212,28.088 C346.460001,28.3280012 346.743998,28.5199993 347.064,28.664 C347.384002,28.8080007 347.711998,28.88 348.048,28.88 L348.048,28.88 Z M360.96,20.312 C361.728004,20.312 362.463996,20.4519986 363.168,20.732 C363.872004,21.0120014 364.487997,21.4039975 365.016,21.908 C365.544003,22.4120025 365.967998,23.0079966 366.288,23.696 C366.608002,24.3840034 366.768,25.127996 366.768,25.928 L366.768,30.368 C366.768,30.7840021 366.620001,31.1439985 366.324,31.448 C366.027999,31.7520015 365.664002,31.9119999 365.232,31.928 C364.799998,31.928 364.428002,31.7880014 364.116,31.508 C363.803998,31.2279986 363.648,30.8720022 363.648,30.44 L363.648,26.12 C363.648,25.7519982 363.580001,25.4040016 363.444,25.076 C363.307999,24.7479984 363.116001,24.4640012 362.868,24.224 C362.619999,23.9839988 362.332002,23.7920007 362.004,23.648 C361.675998,23.5039993 361.320002,23.432 360.936,23.432 C360.583998,23.432 360.248002,23.4999993 359.928,23.636 C359.607998,23.7720007 359.328001,23.9519989 359.088,24.176 C358.847999,24.4000011 358.656001,24.6719984 358.512,24.992 C358.367999,25.3120016 358.296,25.6479982 358.296,26 L358.296,30.368 C358.296,30.7840021 358.136002,31.1479984 357.816,31.46 C357.495998,31.7720016 357.128002,31.928 356.712,31.928 C356.295998,31.928 355.928002,31.7840014 355.608,31.496 C355.287998,31.2079986 355.128,30.8560021 355.128,30.44 L355.128,26.12 C355.144,25.319996 355.299999,24.5680035 355.596,23.864 C355.892001,23.1599965 356.299997,22.5440026 356.82,22.016 C357.340003,21.4879974 357.951996,21.0720015 358.656,20.768 C359.360004,20.4639985 360.127996,20.312 360.96,20.312 L360.96,20.312 Z M369.672,16.664 C370.120002,16.664 370.495998,16.8199984 370.8,17.132 C371.104002,17.4440016 371.272,17.8319977 371.304,18.296 L371.304,20.12 L375.912,20.12 C376.376002,20.12 376.751999,20.2799984 377.04,20.6 C377.328001,20.9200016 377.472,21.2959978 377.472,21.728 C377.472,22.1440021 377.312002,22.5159984 376.992,22.844 C376.671998,23.1720016 376.312002,23.336 375.912,23.336 L371.304,23.336 L371.304,26.072 C371.304,26.4400018 371.371999,26.7879984 371.508,27.116 C371.644001,27.4440016 371.831999,27.7359987 372.072,27.992 C372.312001,28.2480013 372.595998,28.4479993 372.924,28.592 C373.252002,28.7360007 373.607998,28.808 373.992,28.808 C374.408002,28.808 374.763999,28.7520006 375.06,28.64 C375.356001,28.5279994 375.615999,28.3600011 375.84,28.136 C376.176002,27.8479986 376.547998,27.7 376.956,27.692 C377.364002,27.684 377.743998,27.8399984 378.096,28.16 C378.256001,28.3040007 378.376,28.4679991 378.456,28.652 C378.536,28.8360009 378.58,29.027999 378.588,29.228 C378.596,29.428001 378.568,29.623999 378.504,29.816 C378.44,30.008001 378.336001,30.1759993 378.192,30.32 C377.631997,30.8640027 377.016003,31.2799986 376.344,31.568 C375.671997,31.8560014 374.952004,32 374.184,32 C373.351996,32 372.568004,31.8600014 371.832,31.58 C371.095996,31.2999986 370.448003,30.9000026 369.888,30.38 C369.327997,29.8599974 368.884002,29.2360036 368.556,28.508 C368.227998,27.7799964 368.056,26.9680045 368.04,26.072 L368.04,18.176 C368.04,17.7439978 368.203998,17.3840014 368.532,17.096 C368.860002,16.8079986 369.239998,16.664 369.672,16.664 L369.672,16.664 Z M385.896,20.408 C386.616004,20.4880004 387.291997,20.6959983 387.924,21.032 C388.556003,21.3680017 389.099998,21.7959974 389.556,22.316 C390.012002,22.8360026 390.371999,23.4279967 390.636,24.092 C390.900001,24.7560033 391.032,25.4559963 391.032,26.192 L391.032,30.44 C391.032,30.8720022 390.872002,31.2399985 390.552,31.544 C390.231998,31.8480015 389.872002,32 389.472,32 C388.911997,32 388.464002,31.7440026 388.128,31.232 C388.048,31.2640002 387.976,31.2999998 387.912,31.34 C387.848,31.3800002 387.784,31.4159998 387.72,31.448 C387.335998,31.6240009 386.944002,31.7599995 386.544,31.856 C386.127998,31.9520005 385.688002,32 385.224,32 C384.023994,32 382.952005,31.6760032 382.008,31.028 C381.063995,30.3799968 380.360002,29.5440051 379.896,28.52 C379.735999,28.1519982 379.612,27.7760019 379.524,27.392 C379.436,27.0079981 379.392,26.6080021 379.392,26.192 C379.392,25.7759979 379.436,25.3760019 379.524,24.992 C379.612,24.6079981 379.735999,24.2320018 379.896,23.864 C380.360002,22.8239948 381.063995,21.9840032 382.008,21.344 C382.952005,20.7039968 384.023994,20.384 385.224,20.384 L385.572,20.384 C385.676001,20.384 385.783999,20.3919999 385.896,20.408 L385.896,20.408 Z M385.2,28.88 C385.568002,28.88 385.915998,28.8120007 386.244,28.676 C386.572002,28.5399993 386.855999,28.3520012 387.096,28.112 C387.336001,27.8719988 387.527999,27.5880016 387.672,27.26 C387.816001,26.9319984 387.888,26.5760019 387.888,26.192 C387.888,25.8399982 387.816001,25.5000016 387.672,25.172 C387.527999,24.8439984 387.332001,24.5560012 387.084,24.308 C386.835999,24.0599988 386.548002,23.8640007 386.22,23.72 C385.891998,23.5759993 385.552002,23.504 385.2,23.504 C384.847998,23.504 384.512002,23.5759993 384.192,23.72 C383.871998,23.8640007 383.588001,24.0599988 383.34,24.308 C383.091999,24.5560012 382.896001,24.8439984 382.752,25.172 C382.607999,25.5000016 382.536,25.8399982 382.536,26.192 C382.536,26.5600018 382.611999,26.9079984 382.764,27.236 C382.916001,27.5640016 383.115999,27.8479988 383.364,28.088 C383.612001,28.3280012 383.895998,28.5199993 384.216,28.664 C384.536002,28.8080007 384.863998,28.88 385.2,28.88 L385.2,28.88 Z M400.08,20.336 C400.512002,20.336 400.871999,20.4999984 401.16,20.828 C401.448001,21.1560016 401.592,21.5039982 401.592,21.872 C401.592,22.2880021 401.436002,22.6519984 401.124,22.964 C400.811998,23.2760016 400.464002,23.432 400.08,23.432 L395.952,23.432 C395.759999,23.432 395.612001,23.4879994 395.508,23.6 C395.403999,23.7120006 395.352,23.8479992 395.352,24.008 C395.352,24.1680008 395.403999,24.3079994 395.508,24.428 C395.612001,24.5480006 395.759999,24.608 395.952,24.608 L398.664,24.608 C399.160002,24.608 399.619998,24.707999 400.044,24.908 C400.468002,25.108001 400.835998,25.3799983 401.148,25.724 C401.460002,26.0680017 401.703999,26.4599978 401.88,26.9 C402.056001,27.3400022 402.144,27.7999976 402.144,28.28 C402.144,28.8240027 402.048001,29.3239977 401.856,29.78 C401.663999,30.2360023 401.400002,30.6279984 401.064,30.956 C400.727998,31.2840016 400.328002,31.5399991 399.864,31.724 C399.399998,31.9080009 398.888003,32 398.328,32 L394.272,32 C393.855998,32 393.504001,31.8560014 393.216,31.568 C392.927999,31.2799986 392.784,30.9120022 392.784,30.464 C392.784,30.063998 392.927999,29.7000016 393.216,29.372 C393.504001,29.0439984 393.855998,28.8720001 394.272,28.856 L398.328,28.856 C398.760002,28.856 398.976,28.6640019 398.976,28.28 C398.976,27.9119982 398.760002,27.728 398.328,27.728 L395.688,27.728 C395.207998,27.728 394.756002,27.628001 394.332,27.428 C393.907998,27.227999 393.540002,26.9600017 393.228,26.624 C392.915998,26.2879983 392.672001,25.8960022 392.496,25.448 C392.319999,24.9999978 392.232,24.5200026 392.232,24.008 C392.232,23.5279976 392.323999,23.0680022 392.508,22.628 C392.692001,22.1879978 392.943998,21.8000017 393.264,21.464 C393.584002,21.1279983 393.959998,20.860001 394.392,20.66 C394.824002,20.459999 395.295997,20.3520001 395.808,20.336 L400.08,20.336 Z M405.024,16.76 C405.440002,16.76 405.795999,16.9039986 406.092,17.192 C406.388001,17.4800014 406.552,17.8559977 406.584,18.32 L406.584,21.08 C406.952002,20.8399988 407.383998,20.6720005 407.88,20.576 C408.376002,20.4799995 408.847998,20.432 409.296,20.432 C410.080004,20.432 410.823996,20.5759986 411.528,20.864 C412.232004,21.1520014 412.847997,21.5519974 413.376,22.064 C413.904003,22.5760026 414.323998,23.1759966 414.636,23.864 C414.948002,24.5520034 415.104,25.2879961 415.104,26.072 L415.104,30.464 C415.104,30.8960022 414.956001,31.2639985 414.66,31.568 C414.363999,31.8720015 413.992002,32.0319999 413.544,32.048 C413.127998,32.048 412.776001,31.9080014 412.488,31.628 C412.199999,31.3479986 412.024,30.9920022 411.96,30.56 L411.96,26.24 C411.96,25.8879982 411.892001,25.5480016 411.756,25.22 C411.619999,24.8919984 411.432001,24.6040012 411.192,24.356 C410.951999,24.1079988 410.672002,23.9120007 410.352,23.768 C410.031998,23.6239993 409.680002,23.552 409.296,23.552 C408.575996,23.552 407.964003,23.7999975 407.46,24.296 C406.955997,24.7920025 406.664,25.3999964 406.584,26.12 L406.584,30.464 C406.584,30.8960022 406.436001,31.2639985 406.14,31.568 C405.843999,31.8720015 405.472002,32.0319999 405.024,32.048 C404.623998,32.048 404.284001,31.9080014 404.004,31.628 C403.723999,31.3479986 403.544,30.9920022 403.464,30.56 L403.464,18.224 C403.496,17.823998 403.651999,17.4800014 403.932,17.192 C404.212001,16.9039986 404.575998,16.76 405.024,16.76 L405.024,16.76 Z M421.728,20.6 C422.512004,20.6 423.255996,20.7519985 423.96,21.056 C424.664004,21.3600015 425.279997,21.7759974 425.808,22.304 C426.336003,22.8320026 426.755998,23.4479965 427.068,24.152 C427.380002,24.8560035 427.536,25.6159959 427.536,26.432 C427.536,27.232004 427.384002,27.9799965 427.08,28.676 C426.775998,29.3720035 426.364003,29.9839974 425.844,30.512 C425.323997,31.0400026 424.712004,31.4559985 424.008,31.76 C423.303996,32.0640015 422.544004,32.216 421.728,32.216 C420.927996,32.216 420.176004,32.0720014 419.472,31.784 C418.767996,31.4959986 418.152003,31.0920026 417.624,30.572 C417.095997,30.0519974 416.680002,29.4400035 416.376,28.736 C416.071998,28.0319965 415.92,27.2640042 415.92,26.432 C415.92,25.631996 416.067999,24.8840035 416.364,24.188 C416.660001,23.4919965 417.067997,22.8840026 417.588,22.364 C418.108003,21.8439974 418.723996,21.4280016 419.436,21.116 C420.148004,20.8039984 420.911996,20.6320002 421.728,20.6 L421.728,20.6 Z M421.728,23.744 C421.359998,23.744 421.016002,23.8119993 420.696,23.948 C420.375998,24.0840007 420.092001,24.2719988 419.844,24.512 C419.595999,24.7520012 419.400001,25.0359984 419.256,25.364 C419.111999,25.6920016 419.04,26.0479981 419.04,26.432 C419.04,26.8000018 419.111999,27.1479984 419.256,27.476 C419.400001,27.8040016 419.595999,28.0919988 419.844,28.34 C420.092001,28.5880012 420.375998,28.7839993 420.696,28.928 C421.016002,29.0720007 421.359998,29.144 421.728,29.144 C422.096002,29.144 422.443998,29.0720007 422.772,28.928 C423.100002,28.7839993 423.383999,28.5880012 423.624,28.34 C423.864001,28.0919988 424.055999,27.8040016 424.2,27.476 C424.344001,27.1479984 424.416,26.8000018 424.416,26.432 C424.384,25.6959963 424.120002,25.0720026 423.624,24.56 C423.127998,24.0479974 422.496004,23.7760002 421.728,23.744 L421.728,23.744 Z M434.52,20.408 C435.304004,20.408 436.047996,20.5599985 436.752,20.864 C437.456004,21.1680015 438.071997,21.5839974 438.6,22.112 C439.128003,22.6400026 439.547998,23.2559965 439.86,23.96 C440.172002,24.6640035 440.328,25.415996 440.328,26.216 C440.328,27.016004 440.180001,27.7679965 439.884,28.472 C439.587999,29.1760035 439.180003,29.7919974 438.66,30.32 C438.139997,30.8480026 437.524004,31.2639985 436.812,31.568 C436.099996,31.8720015 435.336004,32.024 434.52,32.024 C433.527995,32.024 432.632004,31.824002 431.832,31.424 L431.832,34.184 C431.832,34.6000021 431.680002,34.9599985 431.376,35.264 C431.071998,35.5680015 430.696002,35.72 430.248,35.72 C429.847998,35.72 429.492002,35.5800014 429.18,35.3 C428.867998,35.0199986 428.704,34.6720021 428.688,34.256 L428.688,26.216 C428.688,25.4319961 428.843998,24.6880035 429.156,23.984 C429.468002,23.2799965 429.887997,22.6640026 430.416,22.136 C430.944003,21.6079974 431.559996,21.1880016 432.264,20.876 C432.968004,20.5639984 433.719996,20.408 434.52,20.408 L434.52,20.408 Z M431.832,26.216 C431.832,26.616002 431.903999,26.9799984 432.048,27.308 C432.192001,27.6360016 432.387999,27.9199988 432.636,28.16 C432.884001,28.4000012 433.171998,28.5879993 433.5,28.724 C433.828002,28.8600007 434.167998,28.928 434.52,28.928 C434.904002,28.928 435.255998,28.8560007 435.576,28.712 C435.896002,28.5679993 436.175999,28.3720012 436.416,28.124 C436.656001,27.8759988 436.843999,27.5880016 436.98,27.26 C437.116001,26.9319984 437.184,26.5840018 437.184,26.216 C437.184,25.8479982 437.112001,25.5000016 436.968,25.172 C436.823999,24.8439984 436.632001,24.5600012 436.392,24.32 C436.151999,24.0799988 435.872002,23.8920007 435.552,23.756 C435.231998,23.6199993 434.888002,23.552 434.52,23.552 C434.135998,23.552 433.780002,23.6239993 433.452,23.768 C433.123998,23.9120007 432.840001,24.1039988 432.6,24.344 C432.359999,24.5840012 432.172001,24.8639984 432.036,25.184 C431.899999,25.5040016 431.832,25.8479982 431.832,26.216 L431.832,26.216 Z" id="Pantashop"></path>
        </g>
    </g>
</svg>