<?xml version="1.0" encoding="UTF-8" standalone="no"?>
<svg width="136px" height="137px" viewBox="0 0 136 137" version="1.1" xmlns="http://www.w3.org/2000/svg" xmlns:xlink="http://www.w3.org/1999/xlink">
    <!-- Generator: Sketch 39.1 (31720) - http://www.bohemiancoding.com/sketch -->
    <title>Group 15</title>
    <desc>Created with Sketch.</desc>
    <defs>
        <linearGradient x1="50%" y1="0%" x2="50%" y2="100%" id="linearGradient-1">
            <stop stop-color="#F55151" offset="0%"></stop>
            <stop stop-color="#039E9F" offset="100%"></stop>
        </linearGradient>
    </defs>
    <g id="Welcome" stroke="none" stroke-width="1" fill="none" fill-rule="evenodd">
        <g id="Desktop-HD-/-Desktop" transform="translate(-728.000000, -1289.000000)">
            <g id="Group-15" transform="translate(730.000000, 1291.000000)">
                <ellipse id="Oval-Copy-5" stroke="#7ED321" stroke-width="4" cx="65.8027344" cy="66.1166992" rx="65.8027344" ry="66.1166992"></ellipse>
                <path d="M85.5046602,71.6837959 C80.950557,77.5234628 76.1888683,82.1977506 70.6766788,86.4920928 C75.2435566,89.1293617 85.9581544,93.9090125 89.4296202,90.4384177 C91.7992869,88.0693456 90.7102622,80.6588116 85.5046602,71.6837959 M65.0048083,82.8043863 C71.3473392,78.1652195 77.1533418,72.3606737 81.7904792,66.0197341 C77.1725036,59.7011443 71.3696945,53.8902128 65.0048083,49.235082 C58.6175667,53.9029841 52.8243385,59.7203012 48.2159437,66.0197341 C52.8530811,72.3638665 58.6622774,78.1652195 65.0048083,82.8043863 M59.3297441,86.4920928 C53.8047801,82.1849793 49.0430915,77.5106915 44.5017627,71.6837959 C39.2961608,80.6588116 38.2071361,88.0693456 40.5768027,90.4384177 C44.0163323,93.8738915 54.6383151,89.2059894 59.3297441,86.4920928 M44.5017627,60.3556723 C49.0526723,54.5160054 53.814361,49.8449105 59.3297441,45.5473754 C54.7692536,42.9101065 44.0514622,38.1272629 40.5768027,41.6010505 C38.2071361,43.9701226 39.2961608,51.3806567 44.5017627,60.3556723 M70.6766788,45.5473754 C76.2016428,49.8512961 80.9601378,54.5255839 85.5046602,60.3556723 C97.0591803,40.4292858 88.3214338,35.3495099 70.6766788,45.5473754 M89.5254288,66.0197341 C106.914694,93.1906281 91.9685488,107.807356 65.0048083,90.556552 C38.1049402,107.765849 23.0342436,93.2800271 40.4841877,66.0197341 C23.2130864,39.0372164 37.7759973,24.062893 65.0048083,41.4829162 C91.9589679,24.238498 106.930662,38.8264904 89.5254288,66.0197341 M68.4092081,62.625767 C70.2774762,64.4967592 70.2774762,67.5299377 68.4092081,69.3977372 C66.5377463,71.2687294 63.5038065,71.2687294 61.6323447,69.3977372 C59.7608829,67.5299377 59.7608829,64.4967592 61.6323447,62.625767 C63.5038065,60.7547747 66.5377463,60.7547747 68.4092081,62.625767" id="atom-[#1298]" fill="url(#linearGradient-1)"></path>
            </g>
        </g>
    </g>
</svg>