<?xml version="1.0" encoding="UTF-8" standalone="no"?>
<svg width="136px" height="137px" viewBox="0 0 136 137" version="1.1" xmlns="http://www.w3.org/2000/svg" xmlns:xlink="http://www.w3.org/1999/xlink">
    <!-- Generator: Sketch 39.1 (31720) - http://www.bohemiancoding.com/sketch -->
    <title>Group 13</title>
    <desc>Created with Sketch.</desc>
    <defs>
        <linearGradient x1="50%" y1="0%" x2="50%" y2="100%" id="linearGradient-1">
            <stop stop-color="#FF00E4" offset="0%"></stop>
            <stop stop-color="#D20084" offset="100%"></stop>
        </linearGradient>
        <linearGradient x1="100%" y1="0%" x2="12.5732422%" y2="87.3235467%" id="linearGradient-2">
            <stop stop-color="#80C3F3" offset="0%"></stop>
            <stop stop-color="#498FE2" offset="100%"></stop>
        </linearGradient>
    </defs>
    <g id="Welcome" stroke="none" stroke-width="1" fill="none" fill-rule="evenodd">
        <g id="Desktop-HD-/-Desktop" transform="translate(-728.000000, -1098.000000)">
            <g id="Group-13" transform="translate(730.000000, 1100.000000)">
                <ellipse id="Oval-Copy-3" stroke="#7ED321" stroke-width="4" cx="65.8027344" cy="66.1166992" rx="65.8027344" ry="66.1166992"></ellipse>
                <path d="M69.8241392,83.7296124 C66.6209382,83.7296124 63.6119433,82.4846626 61.3462061,80.2245997 C53.798544,72.6854706 59.2171324,59.7882687 69.8241392,59.7882687 C80.4239531,59.7882687 85.8569271,72.6782882 78.3020722,80.2245997 C76.036335,82.4846626 73.0273401,83.7296124 69.8241392,83.7296124 M81.6587199,83.6099057 C92.2681243,73.0158611 84.6245579,55 69.8169463,55 C55.0429012,55 47.3106235,73.0158611 57.9224254,83.6099057 C60.5861652,86.269789 64.9617952,87.8307646 67.3594007,88.3263504 L67.3594007,93.4234625 L60.1665842,93.4234625 L60.1665842,98.2117313 L67.3594007,98.2117313 L67.3594007,103 L72.1546117,103 L72.1546117,98.2117313 L79.3474282,98.2117313 L79.3474282,93.4234625 L72.1546117,93.4234625 L72.1546117,88.3263504 C76.9498227,87.8307646 78.9925826,86.269789 81.6587199,83.6099057" id="female-[#1363]" fill="url(#linearGradient-1)"></path>
                <path d="M52.8,71.212 C46.1832,71.212 40.8,65.8288 40.8,59.212 C40.8,52.5952 46.1832,47.212 52.8,47.212 C59.4168,47.212 64.8,52.5952 64.8,59.212 C64.8,65.8288 59.4168,71.212 52.8,71.212 L52.8,71.212 Z M64.8,28 L64.8,32.8 L75.8064,32.8 L62.8464,45.7648 C60.0432,43.6648 56.5728,42.4096 52.8,42.4096 C43.5216,42.4096 36,49.9312 36,59.2096 C36,68.488 43.5216,76.012 52.8,76.012 C62.0784,76.012 69.6,68.4904 69.6,59.212 C69.6,55.4392 68.34,51.9688 66.2424,49.1632 L79.2,36.2056 L79.2,47.2 L84,47.2 L84,28 L64.8,28 Z" id="male-[#1364]" fill="url(#linearGradient-2)"></path>
            </g>
        </g>
    </g>
</svg>