<?xml version="1.0" encoding="UTF-8" standalone="no"?>
<svg width="104px" height="132px" viewBox="0 0 104 132" version="1.1" xmlns="http://www.w3.org/2000/svg" xmlns:xlink="http://www.w3.org/1999/xlink">
    <!-- Generator: Sketch 39.1 (31720) - http://www.bohemiancoding.com/sketch -->
    <title>Group 18</title>
    <desc>Created with Sketch.</desc>
    <defs></defs>
    <g id="Welcome" stroke="none" stroke-width="1" fill="none" fill-rule="evenodd">
        <g id="Desktop-HD-/-Desktop" transform="translate(-418.000000, -1929.000000)" stroke-width="4">
            <g id="Group-18" transform="translate(420.000000, 1931.000000)">
                <g id="spoon" transform="translate(52.000000, 0.000000)">
                    <path d="M47.6842105,38.4 C47.6842105,24 40.5789474,0 24,0 C7.42105263,0 0.315789474,24 0.315789474,38.4 C0.315789474,50.4 6.63157895,60.8 17.6842105,63.2 C13.7368421,76 12.1578947,100 12.1578947,100 L12.1578947,116 C12.1578947,122.4 17.6842105,128 24,128 C30.3157895,128 35.8421053,122.4 35.8421053,116 L35.8421053,100 C35.8421053,95.2 34.2631579,74.4 30.3157895,63.2 C41.3684211,60.8 47.6842105,50.4 47.6842105,38.4 L47.6842105,38.4 Z" id="Shape" stroke="#417505"></path>
                    <ellipse id="Oval-3" stroke="#7ED321" cx="24" cy="32.5" rx="13" ry="20.5"></ellipse>
                </g>
                <g id="spoon-copy">
                    <path d="M47.6842105,38.4 C47.6842105,24 40.5789474,0 24,0 C7.42105263,0 0.315789474,24 0.315789474,38.4 C0.315789474,50.4 6.63157895,60.8 17.6842105,63.2 C13.7368421,76 12.1578947,100 12.1578947,100 L12.1578947,116 C12.1578947,122.4 17.6842105,128 24,128 C30.3157895,128 35.8421053,122.4 35.8421053,116 L35.8421053,100 C35.8421053,95.2 34.2631579,74.4 30.3157895,63.2 C41.3684211,60.8 47.6842105,50.4 47.6842105,38.4 L47.6842105,38.4 Z" id="Shape" stroke="#417505"></path>
                    <ellipse id="Oval-3" stroke="#7ED321" cx="24" cy="32.5" rx="13" ry="20.5"></ellipse>
                </g>
            </g>
        </g>
    </g>
</svg>