<?xml version="1.0" encoding="UTF-8" standalone="no"?>
<svg width="140px" height="148px" viewBox="0 0 140 148" version="1.1" xmlns="http://www.w3.org/2000/svg" xmlns:xlink="http://www.w3.org/1999/xlink">
    <!-- Generator: Sketch 39.1 (31720) - http://www.bohemiancoding.com/sketch -->
    <title>stopwatch</title>
    <desc>Created with Sketch.</desc>
    <defs>
        <polygon id="path-1" points="0.659759774 147.815 85.8571714 147.815 85.8571714 0 0.659759774 0"></polygon>
        <polygon id="path-3" points="0.185660909 0.0336182796 0.185660909 22.2459516 51.988149 22.2459516 51.988149 0.0336182796 0.185660909 0.0336182796"></polygon>
    </defs>
    <g id="Welcome" stroke="none" stroke-width="1" fill="none" fill-rule="evenodd">
        <g id="Desktop-HD-/-Desktop" transform="translate(-894.000000, -1917.000000)">
            <g id="stopwatch" transform="translate(894.000000, 1917.000000)">
                <g id="Group-4" transform="translate(53.800059, 0.000000)">
                    <mask id="mask-2" fill="white">
                        <use xlink:href="#path-1"></use>
                    </mask>
                    <g id="Clip-2"></g>
                    <path d="M20.0651338,93.7055833 C22.6520091,93.5113333 24.9975253,92.1978333 26.5199447,90.10425 L49.7028036,58.17325 C50.4052207,57.1989167 50.3092959,55.8484167 49.4366897,54.9943333 C48.5795551,54.14025 47.2242305,54.02925 46.2464164,54.7291667 L14.1920603,77.8295 C12.1002808,79.3465 10.7944657,81.696 10.5902387,84.2613333 C10.3829173,86.8266667 11.3266936,89.34575 13.1523592,91.1618333 C14.8078357,92.8145 17.0450496,93.7271667 19.3750941,93.7271667 C19.6071702,93.7271667 19.836152,93.7271667 20.0651338,93.7055833 L20.0651338,93.7055833 Z M15.5195358,84.64675 C15.618555,83.5151667 16.1971982,82.4915 17.1038423,81.8285833 L36.6477473,67.73775 L22.5189521,87.2120833 C21.8412898,88.1278333 20.8139661,88.6951667 19.6783402,88.79075 C18.5550917,88.8616667 17.4535036,88.47625 16.6458787,87.6715 C15.8475368,86.876 15.4359884,85.766 15.5195358,84.64675 L15.5195358,84.64675 Z" id="Fill-1" fill="#7ED321" mask="url(#mask-2)"></path>
                    <path d="M75.5220474,48.2603333 C75.4972927,48.20175 75.4972927,48.1524167 75.4725379,48.1061667 C75.4385,48.0568333 75.3889905,48.0198333 75.3642357,47.9735833 C72.8640021,43.697 69.9027106,39.7225833 66.5422481,36.1089167 L71.8459614,30.821 L75.3518583,34.3020833 L85.8571714,23.8341667 L75.3518583,13.3816667 L64.8496395,23.8341667 L68.3555363,27.3275833 L63.0363513,32.6278333 C59.4221522,29.2793333 55.4211596,26.3285833 51.1292983,23.8341667 C51.0828831,23.80025 51.0581283,23.7509167 51.0086187,23.72625 C50.9591091,23.6923333 50.9003165,23.6923333 50.8508069,23.6676667 C43.1892001,19.2708333 34.5930999,16.34475 25.421451,15.27175 L25.421451,12.3333333 L29.1315749,12.3333333 C32.5384525,12.3333333 35.3202718,9.5645 35.3202718,6.16666667 C35.3202718,2.76883333 32.5384525,0 29.1315749,0 L6.85536006,0 C3.43301063,0 0.666663081,2.76883333 0.666663081,6.16666667 C0.666663081,9.5645 3.43301063,12.3333333 6.85536006,12.3333333 L10.5654839,12.3333333 L10.5654839,15.1885 C7.89506116,15.466 5.22154406,15.8976667 2.58825349,16.502 C1.24530625,16.8134167 0.412926505,18.1269167 0.725455702,19.462 C1.02870185,20.7878333 2.35617736,21.6203333 3.68674721,21.3058333 C5.957999,20.7878333 8.26947732,20.4024167 10.5654839,20.13725 L13.2235293,19.93375 C14.0342486,19.8720833 14.7830809,19.8258333 15.5071584,19.7888333 L15.5071584,24.6666667 C15.5071584,26.0264167 16.6211239,27.1364167 17.9857316,27.1364167 C19.3534336,27.1364167 20.4643047,26.0264167 20.4643047,24.6666667 L20.4643047,19.8135 C29.772105,20.2328333 38.5476773,22.72725 46.3423412,26.8219167 L43.9009002,31.0368333 C43.2232379,32.21775 43.6347862,33.7255 44.8075443,34.41 C45.2067153,34.6258333 45.630641,34.7368333 46.0545668,34.7368333 C46.8993239,34.7368333 47.7317036,34.28975 48.1927616,33.5065833 L50.6218251,29.304 C58.3700738,34.1941667 64.9579417,40.7585833 69.8655784,48.47925 L65.6479814,50.8996667 C64.4752233,51.5749167 64.063675,53.0919167 64.7506203,54.2728333 C65.2116783,55.0529167 66.044058,55.5 66.8919095,55.5 C67.3158352,55.5 67.7366666,55.3920833 68.1358376,55.17625 L72.3565289,52.7404167 C76.5246164,60.6183333 79.0403217,69.5075833 79.4147378,78.9271667 L74.5194785,78.9271667 C73.1517765,78.9271667 72.0409054,80.0340833 72.0409054,81.3938333 C72.0409054,82.7566667 73.1517765,83.8635833 74.5194785,83.8635833 L79.4147378,83.8635833 C79.0403217,93.2955 76.5246164,102.172417 72.3565289,110.059583 L68.1358376,107.626833 C66.9507021,106.942333 65.4282827,107.337 64.7506203,108.53025 C64.063675,109.711167 64.4752233,111.215833 65.6572645,111.903417 L69.8779558,114.323833 C64.9579417,122.0445 58.3824511,128.596583 50.6342025,133.499083 L48.205139,129.2965 C47.5150992,128.10325 45.9926798,127.7055 44.8199217,128.393083 C43.6347862,129.06525 43.2232379,130.585333 43.9132776,131.763167 L46.3547186,135.968833 C38.5476773,140.075833 29.7844824,142.554833 20.4643047,142.989583 L20.4643047,138.136417 C20.4643047,136.773583 19.365811,135.666667 17.998109,135.666667 C16.6211239,135.666667 15.5195358,136.773583 15.5195358,138.136417 L15.5195358,143.001917 C11.5680528,142.869333 7.6041924,142.376 3.6991246,141.484917 C2.36855475,141.170417 1.04107925,142.01525 0.725455702,143.338 C0.42220955,144.663833 1.25768364,145.989667 2.58825349,146.28875 C7.52992804,147.420333 12.5829991,148 17.5865606,148 C17.7072402,148 17.8186368,147.987667 17.9516938,147.987667 C17.9609768,147.987667 17.9733542,148 17.9857316,148 C18.0104864,148 18.0228638,147.987667 18.0476186,147.987667 C29.9391998,147.904417 41.1097979,144.700833 50.7672595,139.172417 C50.8508069,139.135417 50.9250713,139.123083 50.9962413,139.07375 C51.0581283,139.052167 51.0828831,139.002833 51.1292983,138.965833 C61.1271383,133.163 69.4787848,124.850333 75.3178204,114.891167 C75.3642357,114.8295 75.4261226,114.770917 75.4601605,114.696917 C75.4972927,114.650667 75.4972927,114.589 75.5220474,114.539667 C81.1785165,104.771667 84.4182994,93.462 84.4182994,81.3938333 C84.4182994,69.338 81.1785165,58.0283333 75.5220474,48.2603333 L75.5220474,48.2603333 Z M75.3518583,20.3561667 L78.8453777,23.8341667 L75.3518583,27.3275833 L71.8459614,23.8341667 L75.3518583,20.3561667 Z M15.5071584,14.8493333 L15.5071584,7.39383333 L6.85536006,7.39383333 C6.16532035,7.39383333 5.60833762,6.84191667 5.60833762,6.16666667 C5.60833762,5.49141667 6.16532035,4.9395 6.85536006,4.9395 L29.1315749,4.9395 C29.8092372,4.9395 30.3631256,5.49141667 30.3631256,6.16666667 C30.3631256,6.84191667 29.8092372,7.39383333 29.1315749,7.39383333 L20.4643047,7.39383333 L20.4643047,14.8493333 C19.6071702,14.8154167 18.7840735,14.8030833 17.9857316,14.8030833 L17.7691272,14.8030833 L17.5865606,14.8030833 C17.1781066,14.8030833 16.7789357,14.82775 16.3673873,14.837 C16.0765186,14.837 15.8104046,14.837 15.5071584,14.8493333 L15.5071584,14.8493333 Z" id="Fill-3" fill="#417505" mask="url(#mask-2)"></path>
                </g>
                <path d="M49.5095759,34.53025 L37.1321819,34.53025 C35.7675742,34.53025 34.6536088,35.64025 34.6536088,37 C34.6536088,38.35975 35.7675742,39.46975 37.1321819,39.46975 L49.5095759,39.46975 C50.8741836,39.46975 51.988149,38.35975 51.988149,37 C51.988149,35.64025 50.8741836,34.53025 49.5095759,34.53025 L49.5095759,34.53025 Z" id="Fill-5" fill="#417505"></path>
                <path d="M49.5095759,51.8030833 L24.7547879,51.8030833 C23.3901802,51.8030833 22.2762148,52.8976667 22.2762148,54.2728333 C22.2762148,55.6325833 23.3901802,56.7271667 24.7547879,56.7271667 L49.5095759,56.7271667 C50.8741836,56.7271667 51.988149,55.6325833 51.988149,54.2728333 C51.988149,52.8976667 50.8741836,51.8030833 49.5095759,51.8030833 L49.5095759,51.8030833 Z" id="Fill-6" fill="#417505"></path>
                <g id="Group-10" transform="translate(0.000000, 69.026882)">
                    <mask id="mask-4" fill="white">
                        <use xlink:href="#path-3"></use>
                    </mask>
                    <g id="Clip-8"></g>
                    <path d="M49.5095759,0.0336182796 L12.377394,0.0336182796 C11.0127863,0.0336182796 9.89882082,1.14361828 9.89882082,2.50336828 C9.89882082,3.86620161 11.0127863,4.97311828 12.377394,4.97311828 L49.5095759,4.97311828 C50.8741836,4.97311828 51.988149,3.86620161 51.988149,2.50336828 C51.988149,1.14361828 50.8741836,0.0336182796 49.5095759,0.0336182796 L49.5095759,0.0336182796 Z" id="Fill-7" fill="#417505" mask="url(#mask-4)"></path>
                    <path d="M49.5095759,17.3064516 L2.47857314,17.3064516 C1.11087111,17.3064516 0,18.4133683 0,19.7762016 C0,21.1359516 1.11087111,22.2459516 2.47857314,22.2459516 L49.5095759,22.2459516 C50.8741836,22.2459516 51.988149,21.1359516 51.988149,19.7762016 C51.988149,18.4133683 50.8741836,17.3064516 49.5095759,17.3064516 L49.5095759,17.3064516 Z" id="Fill-9" fill="#417505" mask="url(#mask-4)"></path>
                </g>
                <path d="M49.5095759,103.606167 L17.3345403,103.606167 C15.9544608,103.606167 14.8559671,104.70075 14.8559671,106.0605 C14.8559671,107.435667 15.9544608,108.53025 17.3345403,108.53025 L49.5095759,108.53025 C50.8741836,108.53025 51.988149,107.435667 51.988149,106.0605 C51.988149,104.70075 50.8741836,103.606167 49.5095759,103.606167 L49.5095759,103.606167 Z" id="Fill-11" fill="#417505"></path>
                <path d="M49.5095759,120.863583 L32.1750356,120.863583 C30.8104279,120.863583 29.7119342,121.973583 29.7119342,123.333333 C29.7119342,124.693083 30.8104279,125.803083 32.1750356,125.803083 L49.5095759,125.803083 C50.8741836,125.803083 51.988149,124.693083 51.988149,123.333333 C51.988149,121.973583 50.8741836,120.863583 49.5095759,120.863583 L49.5095759,120.863583 Z" id="Fill-12" fill="#417505"></path>
            </g>
        </g>
    </g>
</svg>