<?xml version="1.0" encoding="UTF-8"?>
<svg width="88px" height="26px" viewBox="0 0 88 26" version="1.1" xmlns="http://www.w3.org/2000/svg" xmlns:xlink="http://www.w3.org/1999/xlink">
    <!-- Generator: Sketch 40 (33762) - http://www.bohemiancoding.com/sketch -->
    <title>visa</title>
    <desc>Created with Sketch.</desc>
    <defs></defs>
    <g id="Welcome" stroke="none" stroke-width="1" fill="none" fill-rule="evenodd">
        <g id="Desktop-HD-/-Desktop" transform="translate(-377.000000, -413.000000)">
            <g id="visa" transform="translate(377.000000, 413.000000)">
                <g id="Layer_1">
                    <polygon id="Shape" fill="#3C58BF" points="31.9977778 25.2233766 36.4303704 0.911688312 43.3562963 0.911688312 39.0622222 25.2233766"></polygon>
                    <polygon id="Shape" fill="#293688" points="31.9977778 25.2233766 37.677037 0.911688312 43.3562963 0.911688312 39.0622222 25.2233766"></polygon>
                    <path d="M64.1340741,1.18181818 C62.7488889,0.641558442 60.5325926,0.101298701 57.7622222,0.101298701 C50.8362963,0.101298701 45.8496296,3.47792208 45.8496296,8.34025974 C45.8496296,11.987013 49.3125926,13.8779221 52.082963,15.0935065 C54.8533333,16.3090909 55.6844444,17.1194805 55.6844444,18.2 C55.6844444,19.8207792 53.4681481,20.6311688 51.5288889,20.6311688 C48.7585185,20.6311688 47.2348148,20.225974 44.88,19.2805195 L43.9103704,18.8753247 L42.9407407,24.412987 C44.602963,25.0883117 47.6503704,25.7636364 50.8362963,25.7636364 C58.1777778,25.7636364 63.0259259,22.387013 63.0259259,17.2545455 C63.0259259,14.4181818 61.2251852,12.2571429 57.0696296,10.5012987 C54.5762963,9.28571429 53.0525926,8.61038961 53.0525926,7.39480519 C53.0525926,6.31428571 54.2992593,5.23376623 57.0696296,5.23376623 C59.4244444,5.23376623 61.0866667,5.63896104 62.3333333,6.17922078 L63.0259259,6.44935065 L64.1340741,1.18181818 L64.1340741,1.18181818 L64.1340741,1.18181818 Z" id="Shape" fill="#3C58BF"></path>
                    <path d="M64.1340741,1.18181818 C62.7488889,0.641558442 60.5325926,0.101298701 57.7622222,0.101298701 C50.8362963,0.101298701 47.0962963,3.47792208 47.0962963,8.34025974 C47.0962963,11.987013 49.3125926,13.8779221 52.082963,15.0935065 C54.8533333,16.3090909 55.6844444,17.1194805 55.6844444,18.2 C55.6844444,19.8207792 53.4681481,20.6311688 51.5288889,20.6311688 C48.7585185,20.6311688 47.2348148,20.225974 44.88,19.2805195 L43.9103704,18.8753247 L42.9407407,24.412987 C44.602963,25.0883117 47.6503704,25.7636364 50.8362963,25.7636364 C58.1777778,25.7636364 63.0259259,22.387013 63.0259259,17.2545455 C63.0259259,14.4181818 61.2251852,12.2571429 57.0696296,10.5012987 C54.5762963,9.28571429 53.0525926,8.61038961 53.0525926,7.39480519 C53.0525926,6.31428571 54.2992593,5.23376623 57.0696296,5.23376623 C59.4244444,5.23376623 61.0866667,5.63896104 62.3333333,6.17922078 L63.0259259,6.44935065 L64.1340741,1.18181818 L64.1340741,1.18181818 L64.1340741,1.18181818 Z" id="Shape" fill="#293688"></path>
                    <path d="M76.0466667,0.911688312 C74.3844444,0.911688312 73.1377778,1.04675325 72.4451852,2.66753247 L62.0562963,25.2233766 L69.5362963,25.2233766 L70.9214815,21.1714286 L79.7866667,21.1714286 L80.6177778,25.2233766 L87.2666667,25.2233766 L81.4488889,0.911688312 L76.0466667,0.911688312 L76.0466667,0.911688312 Z M72.8607407,17.1194805 C73.2762963,15.9038961 75.6311111,9.96103896 75.6311111,9.96103896 C75.6311111,9.96103896 76.1851852,8.47532468 76.6007407,7.52987013 L77.0162963,9.82597403 C77.0162963,9.82597403 78.4014815,15.9038961 78.6785185,17.2545455 L72.8607407,17.2545455 L72.8607407,17.1194805 L72.8607407,17.1194805 Z" id="Shape" fill="#3C58BF"></path>
                    <path d="M77.7088889,0.911688312 C76.0466667,0.911688312 74.8,1.04675325 74.1074074,2.66753247 L62.0562963,25.2233766 L69.5362963,25.2233766 L70.9214815,21.1714286 L79.7866667,21.1714286 L80.6177778,25.2233766 L87.2666667,25.2233766 L81.4488889,0.911688312 L77.7088889,0.911688312 L77.7088889,0.911688312 Z M72.8607407,17.1194805 C73.4148148,15.7688312 75.6311111,9.96103896 75.6311111,9.96103896 C75.6311111,9.96103896 76.1851852,8.47532468 76.6007407,7.52987013 L77.0162963,9.82597403 C77.0162963,9.82597403 78.4014815,15.9038961 78.6785185,17.2545455 L72.8607407,17.2545455 L72.8607407,17.1194805 L72.8607407,17.1194805 Z" id="Shape" fill="#293688"></path>
                    <path d="M19.2540741,17.9298701 L18.5614815,14.4181818 C17.3148148,10.3662338 13.2977778,5.90909091 8.86518519,3.74805195 L15.0985185,25.3584416 L22.5785185,25.3584416 L33.7985185,1.04675325 L26.3185185,1.04675325 L19.2540741,17.9298701 L19.2540741,17.9298701 Z" id="Shape" fill="#3C58BF"></path>
                    <path d="M19.2540741,17.9298701 L18.5614815,14.4181818 C17.3148148,10.3662338 13.2977778,5.90909091 8.86518519,3.74805195 L15.0985185,25.3584416 L22.5785185,25.3584416 L33.7985185,1.04675325 L27.7037037,1.04675325 L19.2540741,17.9298701 L19.2540741,17.9298701 Z" id="Shape" fill="#293688"></path>
                    <path d="M0,0.911688312 L1.24666667,1.18181818 C10.1118519,3.20779221 16.2066667,8.34025974 18.5614815,14.4181818 L16.0681481,2.93766234 C15.6525926,1.31688312 14.4059259,0.911688312 12.8822222,0.911688312 L0,0.911688312 L0,0.911688312 Z" id="Shape" fill="#FFBC00"></path>
                    <path d="M0,0.911688312 L0,0.911688312 C8.86518519,2.93766234 16.2066667,8.20519481 18.5614815,14.2831169 L16.2066667,4.69350649 C15.7911111,3.07272727 14.4059259,2.12727273 12.8822222,2.12727273 L0,0.911688312 L0,0.911688312 Z" id="Shape" fill="#F7981D"></path>
                    <path d="M0,0.911688312 L0,0.911688312 C8.86518519,2.93766234 16.2066667,8.20519481 18.5614815,14.2831169 L16.8992593,9.01558442 C16.4837037,7.39480519 15.9296296,5.77402597 13.9903704,5.0987013 L0,0.911688312 L0,0.911688312 Z" id="Shape" fill="#ED7C00"></path>
                    <g id="Group" transform="translate(9.003704, 3.545455)" fill="#051244">
                        <path d="M17.1762963,13.574026 L12.4666667,8.98181818 L10.2503704,14.1142857 L9.6962963,10.7376623 C8.44962963,6.68571429 4.43259259,2.22857143 0,0.0675324675 L6.23333333,21.6779221 L13.7133333,21.6779221 L17.1762963,13.574026 L17.1762963,13.574026 Z" id="Shape"></path>
                        <polygon id="Shape" points="30.0585185 21.6779221 24.1022222 15.7350649 22.9940741 21.6779221"></polygon>
                        <path d="M45.9881481,13.3038961 L45.9881481,13.3038961 C46.5422222,13.8441558 46.8192593,14.2493506 46.6807407,14.7896104 C46.6807407,16.4103896 44.4644444,17.2207792 42.5251852,17.2207792 C39.7548148,17.2207792 38.2311111,16.8155844 35.8762963,15.8701299 L34.9066667,15.4649351 L33.937037,21.0025974 C35.5992593,21.6779221 38.6466667,22.3532468 41.8325926,22.3532468 C46.2651852,22.3532468 49.8666667,21.1376623 51.9444444,18.9766234 L45.9881481,13.3038961 L45.9881481,13.3038961 Z" id="Shape"></path>
                        <path d="M54.0222222,21.6779221 L60.5325926,21.6779221 L61.9177778,17.625974 L70.782963,17.625974 L71.6140741,21.6779221 L78.262963,21.6779221 L75.9081481,11.8181818 L67.597037,3.98441558 L68.0125926,6.14545455 C68.0125926,6.14545455 69.3977778,12.2233766 69.6748148,13.574026 L63.857037,13.574026 C64.4111111,12.2233766 66.6274074,6.41558442 66.6274074,6.41558442 C66.6274074,6.41558442 67.1814815,4.92987013 67.597037,3.98441558" id="Shape"></path>
                    </g>
                </g>
            </g>
        </g>
    </g>
</svg>