<?xml version="1.0" encoding="UTF-8"?>
<svg width="348px" height="54px" viewBox="0 0 348 54" version="1.1" xmlns="http://www.w3.org/2000/svg" xmlns:xlink="http://www.w3.org/1999/xlink">
    <!-- Generator: Sketch 40 (33762) - http://www.bohemiancoding.com/sketch -->
    <title>Group</title>
    <desc>Created with Sketch.</desc>
    <defs></defs>
    <g id="Welcome" stroke="none" stroke-width="1" fill="none" fill-rule="evenodd">
        <g id="Desktop-HD-/-Desktop" transform="translate(-720.000000, -398.000000)">
            <g id="Group" transform="translate(720.000000, 398.000000)">
                <path d="M97.5161717,47.80575 L107.505863,47.80575 L109.816403,43.72125 L97.5161717,43.72125 L97.5161717,47.80575 L97.5161717,47.80575 Z M175.784807,43.87275 L168.004094,43.87275 L168.004094,39.8895 L175.784807,39.8895 C177.038652,39.8895 177.943751,40.1925 177.943751,41.85675 C177.943751,43.167 177.393373,43.87275 175.784807,43.87275 L175.784807,43.87275 Z M168.004094,33.18225 L175.079845,33.18225 C176.135047,33.18225 176.58909,33.73725 176.58909,34.797 C176.58909,35.9055 175.884876,36.462 175.079845,36.462 L168.004094,36.462 L168.004094,33.18225 L168.004094,33.18225 Z M178.89067,36.8595 C180.060876,36.3555 181.057082,35.5575 181.057082,33.53625 C181.057082,29.70375 177.843682,29.2515 175.583176,29.2515 L163.635425,29.2515 L163.635425,47.80575 L175.784807,47.80575 C181.355794,47.80575 182.511811,44.73 182.511811,41.9055 C182.511811,38.72625 180.715056,37.41 178.89067,36.8595 L178.89067,36.8595 Z M215.698764,47.80575 L225.688455,47.80575 L227.999742,43.72125 L215.698764,43.72125 L215.698764,47.80575 L215.698764,47.80575 Z M97.5161717,36.462 L97.5161717,40.54425 L111.62212,40.54425 L113.982695,36.462 L97.5161717,36.462 L97.5161717,36.462 Z M197.722996,43.87275 L191.24915,43.87275 L191.24915,39.73725 L197.722996,39.73725 C198.477245,39.73725 199.631021,39.93975 199.631021,41.80425 C199.631021,43.51875 198.680369,43.87275 197.722996,43.87275 L197.722996,43.87275 Z M197.973914,35.9055 L191.24915,35.9055 L191.24915,29.2515 L186.8297,29.2515 L186.8297,47.80575 L197.927614,47.80575 C200.936395,47.80575 204.050472,46.1415 204.050472,41.75625 C204.050472,36.006 200.03279,35.9055 197.973914,35.9055 L197.973914,35.9055 Z M206.308738,47.80575 L210.678155,47.80575 L210.678155,29.2515 L206.308738,29.2515 L206.308738,47.80575 Z M123.52133,29.2515 L112.928987,47.80575 L118.148987,47.80575 L125.127657,35.553 L132.156361,47.80575 L137.627279,47.80575 L127.034936,29.2515 L123.52133,29.2515 L123.52133,29.2515 Z M148.7237,43.97325 C144.456592,43.97325 142.649382,41.50275 142.649382,38.47725 C142.649382,35.15025 144.708258,32.93025 148.7237,32.93025 C153.244712,32.93025 154.798017,35.15025 154.798017,38.47725 C154.798017,42.46125 151.83703,43.97325 148.7237,43.97325 L148.7237,43.97325 Z M148.775227,28.797 C141.394043,28.797 137.880438,33.3345 137.880438,38.42625 C137.880438,43.72125 141.293227,48.05775 148.775227,48.05775 C152.038661,48.05775 159.569948,46.545 159.569948,38.42625 C159.569948,33.1335 156.204953,28.797 148.775227,28.797 L148.775227,28.797 Z M72.1532446,43.72125 L79.1319142,31.46925 L86.1613648,43.72125 L72.1532446,43.72125 L72.1532446,43.72125 Z M81.0899742,25.16625 L77.4748069,25.16625 L66.8832103,43.72125 L64.223176,43.72125 L64.223176,53.25 L68.4372618,53.25 L68.4372618,47.80575 L90.1260258,47.80575 L90.1260258,53.25 L94.3438455,53.25 L94.3438455,43.72125 L91.6830644,43.72125 L81.0899742,25.16625 L81.0899742,25.16625 Z M118.098206,29.2515 L97.5161717,29.2515 L97.5161717,33.3345 L115.739124,33.3345 L118.098206,29.2515 L118.098206,29.2515 Z M215.698764,36.462 L215.698764,40.54425 L229.805459,40.54425 L232.164541,36.462 L215.698764,36.462 L215.698764,36.462 Z M236.280798,29.2515 L215.698764,29.2515 L215.698764,33.3345 L233.92321,33.3345 L236.280798,29.2515 L236.280798,29.2515 Z M343.617142,29.2515 L333.171914,41.30175 L333.171914,29.2515 L328.754704,29.2515 L328.754704,47.80575 L332.46994,47.80575 L343.113811,35.655 L343.113811,47.80575 L347.531768,47.80575 L347.531768,29.2515 L343.617142,29.2515 L343.617142,29.2515 Z M241.705416,29.2515 L231.110833,47.80575 L236.331579,47.80575 L243.311742,35.553 L250.3397,47.80575 L255.814352,47.80575 L245.219021,29.2515 L241.705416,29.2515 L241.705416,29.2515 Z M295.51921,36.462 L285.828979,36.462 L285.828979,29.2515 L281.411021,29.2515 L281.411021,47.80575 L285.828979,47.80575 L285.828979,40.54425 L295.51921,40.54425 L295.51921,47.80575 L299.937914,47.80575 L299.937914,29.2515 L295.51921,29.2515 L295.51921,36.462 L295.51921,36.462 Z M309.374987,41.30175 L309.374987,29.2515 L304.95703,29.2515 L304.95703,47.80575 L308.670773,47.80575 L319.314644,35.655 L319.314644,47.80575 L323.733348,47.80575 L323.733348,29.2515 L319.817227,29.2515 L309.374987,41.30175 L309.374987,41.30175 Z M262.032052,41.2005 L262.032052,29.2515 L257.611107,29.2515 L257.611107,47.80575 L261.32933,47.80575 L271.971708,35.75475 L271.971708,47.80575 L276.390412,47.80575 L276.390412,29.2515 L272.67667,29.2515 L262.032052,41.2005 L262.032052,41.2005 Z" id="Fill-5" fill="#1A1918"></path>
                <path d="M31.4379914,38.9775 L10.4474678,29.85525 L5.99142489,37.6065 L29.6068841,42.16575 L31.4379914,38.9775 L31.4379914,38.9775 Z M28.5135966,48.0285 L35.4945064,48.0285 L41.6285665,37.35975 L47.761133,48.0285 L54.7405494,48.0285 L41.6285665,25.21575 L28.5135966,48.0285 L28.5135966,48.0285 Z M4.94891845,39.42225 L0,48.0285 L26.2366609,48.0285 L28.5628841,43.98075 L4.94891845,39.42225 L4.94891845,39.42225 Z M40.4897253,23.23575 L27.3710215,0.41625 L22.4161288,9.036 L38.1597682,27.28875 L40.4897253,23.23575 L40.4897253,23.23575 Z M37.116515,29.106 L21.3721288,10.8495 L16.9205665,18.597 L35.2839142,32.29275 L37.116515,29.106 L37.116515,29.106 Z M34.2914421,34.01325 L15.9251073,20.32725 L11.4399399,28.13025 L32.4319571,37.254 L34.2914421,34.01325 L34.2914421,34.01325 Z" id="Fill-6" fill="#EFA72C"></path>
            </g>
        </g>
    </g>
</svg>