<?xml version="1.0" encoding="UTF-8"?>
<svg width="132px" height="67px" viewBox="0 0 132 67" version="1.1" xmlns="http://www.w3.org/2000/svg" xmlns:xlink="http://www.w3.org/1999/xlink">
    <!-- Generator: Sketch 40 (33762) - http://www.bohemiancoding.com/sketch -->
    <title>dpd</title>
    <desc>Created with Sketch.</desc>
    <defs></defs>
    <g id="Welcome" stroke="none" stroke-width="1" fill="none" fill-rule="evenodd">
        <g id="Desktop-HD-/-Desktop" transform="translate(-552.000000, -392.000000)">
            <g id="dpd" transform="translate(552.000000, 392.000000)">
                <polyline id="Fill-1" fill="#CB4438" points="124.31 36.492 131.15 32.532 131.15 11.436 112.862 0.852 106.022 4.812 124.31 15.396 124.31 36.492"></polyline>
                <polyline id="Fill-2" fill="#CB4438" points="73.982 36.492 67.142 32.532 67.142 11.436 85.43 0.852 92.342 4.812 73.982 15.396 73.982 36.492"></polyline>
                <polyline id="Fill-3" fill="#CB4438" points="117.47 48.372 117.47 56.292 99.182 66.876 80.894 56.292 80.894 48.372 99.182 58.956 117.47 48.372"></polyline>
                <path d="M78.59,41.82 L78.59,18.06 L99.182,6.18 L119.774,18.06 L119.774,41.82 L99.182,53.7 L78.59,41.82 L78.59,41.82 Z M85.43,19.356 L99.182,27.276 L112.862,19.356 L99.182,11.436 L85.43,19.356 L85.43,19.356 Z M96.878,47.076 L96.878,31.236 L83.198,23.316 L83.198,39.156 L96.878,47.076 L96.878,47.076 Z M115.166,23.316 L101.414,31.236 L101.414,47.076 L115.166,39.156 L115.166,23.316 L115.166,23.316 Z" id="Fill-4" fill="#343433"></path>
                <path d="M0.758,11.508 L9.758,11.508 C16.238,11.508 20.054,15.396 20.054,21.876 C20.054,28.788 16.166,32.46 9.758,32.46 L0.758,32.46 L0.758,11.508 L0.758,11.508 Z M6.014,27.924 L8.606,27.924 C12.782,27.852 14.726,26.052 14.726,21.876 C14.726,18.06 12.35,16.044 8.606,16.044 L6.014,16.044 L6.014,27.924 L6.014,27.924 Z" id="Fill-5" fill="#343433"></path>
                <path d="M22.862,11.508 L33.158,11.508 C37.046,11.508 40.79,13.308 40.79,18.276 C40.79,23.46 37.766,25.476 33.158,25.476 L28.19,25.476 L28.19,32.46 L22.862,32.46 L22.862,11.508 L22.862,11.508 Z M28.19,21.444 L32.366,21.444 C34.022,21.444 35.462,20.508 35.462,18.636 C35.462,16.692 34.022,15.684 32.366,15.684 L28.19,15.684 L28.19,21.444 L28.19,21.444 Z" id="Fill-6" fill="#343433"></path>
                <path d="M43.814,11.508 L52.814,11.508 C59.294,11.508 63.11,15.396 63.11,21.876 C63.11,28.788 59.222,32.46 52.814,32.46 L43.814,32.46 L43.814,11.508 L43.814,11.508 Z M49.142,27.924 L51.734,27.924 C55.838,27.852 57.854,26.052 57.854,21.876 C57.854,18.06 55.406,16.044 51.734,16.044 L49.142,16.044 L49.142,27.924 L49.142,27.924 Z" id="Fill-7" fill="#343433"></path>
            </g>
        </g>
    </g>
</svg>